<?xml version="1.0" encoding="UTF-8" standalone="no"?>
<!DOCTYPE svg PUBLIC "-//W3C//DTD SVG 1.0//EN" "http://www.w3.org/TR/2001/PR-SVG-20010719/DTD/svg10.dtd">
<svg width="40cm" height="30cm" viewBox="99 39 788 585" xmlns="http://www.w3.org/2000/svg" xmlns:xlink="http://www.w3.org/1999/xlink">
  <g>
    <path style="fill: #ffffff" d="M 409.282 446.068 C 391.155,445.462 356,458.177 360.944,485.422 C 365.887,512.666 389.507,518.72 399.394,510.85 C 409.282,502.979 384.014,548.992 432.352,561.101 C 480.69,573.21 505.408,553.836 498.267,539.911 C 491.127,525.986 540.563,572.605 563.634,545.965 C 586.704,519.326 540.014,493.898 549.901,497.53 C 559.789,501.163 590,496.319 580.113,450.911 C 570.225,405.503 481.239,440.619 491.127,433.959 C 501.014,427.299 476.296,394 445.535,400.66 C 414.775,407.32 412.593,419.405 409.297,446.044 L 409.282,446.068z"/>
    <path style="fill: none; fill-opacity:0; stroke-width: 2; stroke: #000000" d="M 409.282 446.068 C 391.155,445.462 356,458.177 360.944,485.422 C 365.887,512.666 389.507,518.72 399.394,510.85 C 409.282,502.979 384.014,548.992 432.352,561.101 C 480.69,573.21 505.408,553.836 498.267,539.911 C 491.127,525.986 540.563,572.605 563.634,545.965 C 586.704,519.326 540.014,493.898 549.901,497.53 C 559.789,501.163 590,496.319 580.113,450.911 C 570.225,405.503 481.239,440.619 491.127,433.959 C 501.014,427.299 476.296,394 445.535,400.66 C 414.775,407.32 412.593,419.405 409.297,446.044 L 409.282,446.068"/>
    <text style="fill: #000000;text-anchor:middle;font-size:12.8;font-family:sanserif;font-style:normal;font-weight:normal" x="479.273" y="490.764">
      <tspan x="479.273" y="490.764">network</tspan>
    </text>
  </g>
  <g>
    <g>
      <rect style="fill: #ffffff" x="177" y="60" width="640" height="22"/>
      <rect style="fill: none; fill-opacity:0; stroke-width: 2; stroke: #000000" x="177" y="60" width="640" height="22"/>
    </g>
    <g>
      <g>
        <ellipse style="fill: #ffffff" cx="266.25" cy="69.25" rx="9.25" ry="9.25"/>
        <ellipse style="fill: none; fill-opacity:0; stroke-width: 2; stroke: #000000" cx="266.25" cy="69.25" rx="9.25" ry="9.25"/>
        <ellipse style="fill: #000000" cx="266.25" cy="69.25" rx="1.85" ry="1.85"/>
        <ellipse style="fill: none; fill-opacity:0; stroke-width: 2; stroke: #000000" cx="266.25" cy="69.25" rx="1.85" ry="1.85"/>
      </g>
      <g>
        <ellipse style="fill: #ffffff" cx="206.25" cy="69.25" rx="9.25" ry="9.25"/>
        <ellipse style="fill: none; fill-opacity:0; stroke-width: 2; stroke: #000000" cx="206.25" cy="69.25" rx="9.25" ry="9.25"/>
        <ellipse style="fill: #000000" cx="206.25" cy="69.25" rx="1.85" ry="1.85"/>
        <ellipse style="fill: none; fill-opacity:0; stroke-width: 2; stroke: #000000" cx="206.25" cy="69.25" rx="1.85" ry="1.85"/>
      </g>
      <g>
        <ellipse style="fill: #ffffff" cx="226.25" cy="69.25" rx="9.25" ry="9.25"/>
        <ellipse style="fill: none; fill-opacity:0; stroke-width: 2; stroke: #000000" cx="226.25" cy="69.25" rx="9.25" ry="9.25"/>
        <ellipse style="fill: #000000" cx="226.25" cy="69.25" rx="1.85" ry="1.85"/>
        <ellipse style="fill: none; fill-opacity:0; stroke-width: 2; stroke: #000000" cx="226.25" cy="69.25" rx="1.85" ry="1.85"/>
      </g>
      <g>
        <ellipse style="fill: #ffffff" cx="246.25" cy="69.25" rx="9.25" ry="9.25"/>
        <ellipse style="fill: none; fill-opacity:0; stroke-width: 2; stroke: #000000" cx="246.25" cy="69.25" rx="9.25" ry="9.25"/>
        <ellipse style="fill: #000000" cx="246.25" cy="69.25" rx="1.85" ry="1.85"/>
        <ellipse style="fill: none; fill-opacity:0; stroke-width: 2; stroke: #000000" cx="246.25" cy="69.25" rx="1.85" ry="1.85"/>
      </g>
      <g>
        <ellipse style="fill: #ffffff" cx="286.25" cy="69.25" rx="9.25" ry="9.25"/>
        <ellipse style="fill: none; fill-opacity:0; stroke-width: 2; stroke: #000000" cx="286.25" cy="69.25" rx="9.25" ry="9.25"/>
        <ellipse style="fill: #000000" cx="286.25" cy="69.25" rx="1.85" ry="1.85"/>
        <ellipse style="fill: none; fill-opacity:0; stroke-width: 2; stroke: #000000" cx="286.25" cy="69.25" rx="1.85" ry="1.85"/>
      </g>
      <g>
        <ellipse style="fill: #ffffff" cx="306.25" cy="69.25" rx="9.25" ry="9.25"/>
        <ellipse style="fill: none; fill-opacity:0; stroke-width: 2; stroke: #000000" cx="306.25" cy="69.25" rx="9.25" ry="9.25"/>
        <ellipse style="fill: #000000" cx="306.25" cy="69.25" rx="1.85" ry="1.85"/>
        <ellipse style="fill: none; fill-opacity:0; stroke-width: 2; stroke: #000000" cx="306.25" cy="69.25" rx="1.85" ry="1.85"/>
      </g>
      <g>
        <ellipse style="fill: #ffffff" cx="326.25" cy="69.25" rx="9.25" ry="9.25"/>
        <ellipse style="fill: none; fill-opacity:0; stroke-width: 2; stroke: #000000" cx="326.25" cy="69.25" rx="9.25" ry="9.25"/>
        <ellipse style="fill: #000000" cx="326.25" cy="69.25" rx="1.85" ry="1.85"/>
        <ellipse style="fill: none; fill-opacity:0; stroke-width: 2; stroke: #000000" cx="326.25" cy="69.25" rx="1.85" ry="1.85"/>
      </g>
      <g>
        <ellipse style="fill: #ffffff" cx="186.25" cy="69.25" rx="9.25" ry="9.25"/>
        <ellipse style="fill: none; fill-opacity:0; stroke-width: 2; stroke: #000000" cx="186.25" cy="69.25" rx="9.25" ry="9.25"/>
        <ellipse style="fill: #000000" cx="186.25" cy="69.25" rx="1.85" ry="1.85"/>
        <ellipse style="fill: none; fill-opacity:0; stroke-width: 2; stroke: #000000" cx="186.25" cy="69.25" rx="1.85" ry="1.85"/>
      </g>
    </g>
    <g>
      <g>
        <ellipse style="fill: #ffffff" cx="746.25" cy="69.25" rx="9.25" ry="9.25"/>
        <ellipse style="fill: none; fill-opacity:0; stroke-width: 2; stroke: #000000" cx="746.25" cy="69.25" rx="9.25" ry="9.25"/>
        <ellipse style="fill: #000000" cx="746.25" cy="69.25" rx="1.85" ry="1.85"/>
        <ellipse style="fill: none; fill-opacity:0; stroke-width: 2; stroke: #000000" cx="746.25" cy="69.25" rx="1.85" ry="1.85"/>
      </g>
      <g>
        <ellipse style="fill: #ffffff" cx="686.25" cy="69.25" rx="9.25" ry="9.25"/>
        <ellipse style="fill: none; fill-opacity:0; stroke-width: 2; stroke: #000000" cx="686.25" cy="69.25" rx="9.25" ry="9.25"/>
        <ellipse style="fill: #000000" cx="686.25" cy="69.25" rx="1.85" ry="1.85"/>
        <ellipse style="fill: none; fill-opacity:0; stroke-width: 2; stroke: #000000" cx="686.25" cy="69.25" rx="1.85" ry="1.85"/>
      </g>
      <g>
        <ellipse style="fill: #ffffff" cx="706.25" cy="69.25" rx="9.25" ry="9.25"/>
        <ellipse style="fill: none; fill-opacity:0; stroke-width: 2; stroke: #000000" cx="706.25" cy="69.25" rx="9.25" ry="9.25"/>
        <ellipse style="fill: #000000" cx="706.25" cy="69.25" rx="1.85" ry="1.85"/>
        <ellipse style="fill: none; fill-opacity:0; stroke-width: 2; stroke: #000000" cx="706.25" cy="69.25" rx="1.85" ry="1.85"/>
      </g>
      <g>
        <ellipse style="fill: #ffffff" cx="726.25" cy="69.25" rx="9.25" ry="9.25"/>
        <ellipse style="fill: none; fill-opacity:0; stroke-width: 2; stroke: #000000" cx="726.25" cy="69.25" rx="9.25" ry="9.25"/>
        <ellipse style="fill: #000000" cx="726.25" cy="69.25" rx="1.85" ry="1.85"/>
        <ellipse style="fill: none; fill-opacity:0; stroke-width: 2; stroke: #000000" cx="726.25" cy="69.25" rx="1.85" ry="1.85"/>
      </g>
      <g>
        <ellipse style="fill: #ffffff" cx="766.25" cy="69.25" rx="9.25" ry="9.25"/>
        <ellipse style="fill: none; fill-opacity:0; stroke-width: 2; stroke: #000000" cx="766.25" cy="69.25" rx="9.25" ry="9.25"/>
        <ellipse style="fill: #000000" cx="766.25" cy="69.25" rx="1.85" ry="1.85"/>
        <ellipse style="fill: none; fill-opacity:0; stroke-width: 2; stroke: #000000" cx="766.25" cy="69.25" rx="1.85" ry="1.85"/>
      </g>
      <g>
        <ellipse style="fill: #ffffff" cx="786.25" cy="69.25" rx="9.25" ry="9.25"/>
        <ellipse style="fill: none; fill-opacity:0; stroke-width: 2; stroke: #000000" cx="786.25" cy="69.25" rx="9.25" ry="9.25"/>
        <ellipse style="fill: #000000" cx="786.25" cy="69.25" rx="1.85" ry="1.85"/>
        <ellipse style="fill: none; fill-opacity:0; stroke-width: 2; stroke: #000000" cx="786.25" cy="69.25" rx="1.85" ry="1.85"/>
      </g>
      <g>
        <ellipse style="fill: #ffffff" cx="806.25" cy="69.25" rx="9.25" ry="9.25"/>
        <ellipse style="fill: none; fill-opacity:0; stroke-width: 2; stroke: #000000" cx="806.25" cy="69.25" rx="9.25" ry="9.25"/>
        <ellipse style="fill: #000000" cx="806.25" cy="69.25" rx="1.85" ry="1.85"/>
        <ellipse style="fill: none; fill-opacity:0; stroke-width: 2; stroke: #000000" cx="806.25" cy="69.25" rx="1.85" ry="1.85"/>
      </g>
      <g>
        <ellipse style="fill: #ffffff" cx="666.25" cy="69.25" rx="9.25" ry="9.25"/>
        <ellipse style="fill: none; fill-opacity:0; stroke-width: 2; stroke: #000000" cx="666.25" cy="69.25" rx="9.25" ry="9.25"/>
        <ellipse style="fill: #000000" cx="666.25" cy="69.25" rx="1.85" ry="1.85"/>
        <ellipse style="fill: none; fill-opacity:0; stroke-width: 2; stroke: #000000" cx="666.25" cy="69.25" rx="1.85" ry="1.85"/>
      </g>
    </g>
    <g>
      <g>
        <ellipse style="fill: #ffffff" cx="586.25" cy="69.25" rx="9.25" ry="9.25"/>
        <ellipse style="fill: none; fill-opacity:0; stroke-width: 2; stroke: #000000" cx="586.25" cy="69.25" rx="9.25" ry="9.25"/>
        <ellipse style="fill: #000000" cx="586.25" cy="69.25" rx="1.85" ry="1.85"/>
        <ellipse style="fill: none; fill-opacity:0; stroke-width: 2; stroke: #000000" cx="586.25" cy="69.25" rx="1.85" ry="1.85"/>
      </g>
      <g>
        <ellipse style="fill: #ffffff" cx="526.25" cy="69.25" rx="9.25" ry="9.25"/>
        <ellipse style="fill: none; fill-opacity:0; stroke-width: 2; stroke: #000000" cx="526.25" cy="69.25" rx="9.25" ry="9.25"/>
        <ellipse style="fill: #000000" cx="526.25" cy="69.25" rx="1.85" ry="1.85"/>
        <ellipse style="fill: none; fill-opacity:0; stroke-width: 2; stroke: #000000" cx="526.25" cy="69.25" rx="1.85" ry="1.85"/>
      </g>
      <g>
        <ellipse style="fill: #ffffff" cx="546.25" cy="69.25" rx="9.25" ry="9.25"/>
        <ellipse style="fill: none; fill-opacity:0; stroke-width: 2; stroke: #000000" cx="546.25" cy="69.25" rx="9.25" ry="9.25"/>
        <ellipse style="fill: #000000" cx="546.25" cy="69.25" rx="1.85" ry="1.85"/>
        <ellipse style="fill: none; fill-opacity:0; stroke-width: 2; stroke: #000000" cx="546.25" cy="69.25" rx="1.85" ry="1.85"/>
      </g>
      <g>
        <ellipse style="fill: #ffffff" cx="566.25" cy="69.25" rx="9.25" ry="9.25"/>
        <ellipse style="fill: none; fill-opacity:0; stroke-width: 2; stroke: #000000" cx="566.25" cy="69.25" rx="9.25" ry="9.25"/>
        <ellipse style="fill: #000000" cx="566.25" cy="69.25" rx="1.85" ry="1.85"/>
        <ellipse style="fill: none; fill-opacity:0; stroke-width: 2; stroke: #000000" cx="566.25" cy="69.25" rx="1.85" ry="1.85"/>
      </g>
      <g>
        <ellipse style="fill: #ffffff" cx="606.25" cy="69.25" rx="9.25" ry="9.25"/>
        <ellipse style="fill: none; fill-opacity:0; stroke-width: 2; stroke: #000000" cx="606.25" cy="69.25" rx="9.25" ry="9.25"/>
        <ellipse style="fill: #000000" cx="606.25" cy="69.25" rx="1.85" ry="1.85"/>
        <ellipse style="fill: none; fill-opacity:0; stroke-width: 2; stroke: #000000" cx="606.25" cy="69.25" rx="1.85" ry="1.85"/>
      </g>
      <g>
        <ellipse style="fill: #ffffff" cx="626.25" cy="69.25" rx="9.25" ry="9.25"/>
        <ellipse style="fill: none; fill-opacity:0; stroke-width: 2; stroke: #000000" cx="626.25" cy="69.25" rx="9.25" ry="9.25"/>
        <ellipse style="fill: #000000" cx="626.25" cy="69.25" rx="1.85" ry="1.85"/>
        <ellipse style="fill: none; fill-opacity:0; stroke-width: 2; stroke: #000000" cx="626.25" cy="69.25" rx="1.85" ry="1.85"/>
      </g>
      <g>
        <ellipse style="fill: #ffffff" cx="646.25" cy="69.25" rx="9.25" ry="9.25"/>
        <ellipse style="fill: none; fill-opacity:0; stroke-width: 2; stroke: #000000" cx="646.25" cy="69.25" rx="9.25" ry="9.25"/>
        <ellipse style="fill: #000000" cx="646.25" cy="69.25" rx="1.85" ry="1.85"/>
        <ellipse style="fill: none; fill-opacity:0; stroke-width: 2; stroke: #000000" cx="646.25" cy="69.25" rx="1.85" ry="1.85"/>
      </g>
      <g>
        <ellipse style="fill: #ffffff" cx="506.25" cy="69.25" rx="9.25" ry="9.25"/>
        <ellipse style="fill: none; fill-opacity:0; stroke-width: 2; stroke: #000000" cx="506.25" cy="69.25" rx="9.25" ry="9.25"/>
        <ellipse style="fill: #000000" cx="506.25" cy="69.25" rx="1.85" ry="1.85"/>
        <ellipse style="fill: none; fill-opacity:0; stroke-width: 2; stroke: #000000" cx="506.25" cy="69.25" rx="1.85" ry="1.85"/>
      </g>
    </g>
    <g>
      <g>
        <ellipse style="fill: #ffffff" cx="426.25" cy="69.25" rx="9.25" ry="9.25"/>
        <ellipse style="fill: none; fill-opacity:0; stroke-width: 2; stroke: #000000" cx="426.25" cy="69.25" rx="9.25" ry="9.25"/>
        <ellipse style="fill: #000000" cx="426.25" cy="69.25" rx="1.85" ry="1.85"/>
        <ellipse style="fill: none; fill-opacity:0; stroke-width: 2; stroke: #000000" cx="426.25" cy="69.25" rx="1.85" ry="1.85"/>
      </g>
      <g>
        <ellipse style="fill: #ffffff" cx="366.25" cy="69.25" rx="9.25" ry="9.25"/>
        <ellipse style="fill: none; fill-opacity:0; stroke-width: 2; stroke: #000000" cx="366.25" cy="69.25" rx="9.25" ry="9.25"/>
        <ellipse style="fill: #000000" cx="366.25" cy="69.25" rx="1.85" ry="1.85"/>
        <ellipse style="fill: none; fill-opacity:0; stroke-width: 2; stroke: #000000" cx="366.25" cy="69.25" rx="1.85" ry="1.85"/>
      </g>
      <g>
        <ellipse style="fill: #ffffff" cx="386.25" cy="69.25" rx="9.25" ry="9.25"/>
        <ellipse style="fill: none; fill-opacity:0; stroke-width: 2; stroke: #000000" cx="386.25" cy="69.25" rx="9.25" ry="9.25"/>
        <ellipse style="fill: #000000" cx="386.25" cy="69.25" rx="1.85" ry="1.85"/>
        <ellipse style="fill: none; fill-opacity:0; stroke-width: 2; stroke: #000000" cx="386.25" cy="69.25" rx="1.85" ry="1.85"/>
      </g>
      <g>
        <ellipse style="fill: #ffffff" cx="406.25" cy="69.25" rx="9.25" ry="9.25"/>
        <ellipse style="fill: none; fill-opacity:0; stroke-width: 2; stroke: #000000" cx="406.25" cy="69.25" rx="9.25" ry="9.25"/>
        <ellipse style="fill: #000000" cx="406.25" cy="69.25" rx="1.85" ry="1.85"/>
        <ellipse style="fill: none; fill-opacity:0; stroke-width: 2; stroke: #000000" cx="406.25" cy="69.25" rx="1.85" ry="1.85"/>
      </g>
      <g>
        <ellipse style="fill: #ffffff" cx="446.25" cy="69.25" rx="9.25" ry="9.25"/>
        <ellipse style="fill: none; fill-opacity:0; stroke-width: 2; stroke: #000000" cx="446.25" cy="69.25" rx="9.25" ry="9.25"/>
        <ellipse style="fill: #000000" cx="446.25" cy="69.25" rx="1.85" ry="1.85"/>
        <ellipse style="fill: none; fill-opacity:0; stroke-width: 2; stroke: #000000" cx="446.25" cy="69.25" rx="1.85" ry="1.85"/>
      </g>
      <g>
        <ellipse style="fill: #ffffff" cx="466.25" cy="69.25" rx="9.25" ry="9.25"/>
        <ellipse style="fill: none; fill-opacity:0; stroke-width: 2; stroke: #000000" cx="466.25" cy="69.25" rx="9.25" ry="9.25"/>
        <ellipse style="fill: #000000" cx="466.25" cy="69.25" rx="1.85" ry="1.85"/>
        <ellipse style="fill: none; fill-opacity:0; stroke-width: 2; stroke: #000000" cx="466.25" cy="69.25" rx="1.85" ry="1.85"/>
      </g>
      <g>
        <ellipse style="fill: #ffffff" cx="486.25" cy="69.25" rx="9.25" ry="9.25"/>
        <ellipse style="fill: none; fill-opacity:0; stroke-width: 2; stroke: #000000" cx="486.25" cy="69.25" rx="9.25" ry="9.25"/>
        <ellipse style="fill: #000000" cx="486.25" cy="69.25" rx="1.85" ry="1.85"/>
        <ellipse style="fill: none; fill-opacity:0; stroke-width: 2; stroke: #000000" cx="486.25" cy="69.25" rx="1.85" ry="1.85"/>
      </g>
      <g>
        <ellipse style="fill: #ffffff" cx="346.25" cy="69.25" rx="9.25" ry="9.25"/>
        <ellipse style="fill: none; fill-opacity:0; stroke-width: 2; stroke: #000000" cx="346.25" cy="69.25" rx="9.25" ry="9.25"/>
        <ellipse style="fill: #000000" cx="346.25" cy="69.25" rx="1.85" ry="1.85"/>
        <ellipse style="fill: none; fill-opacity:0; stroke-width: 2; stroke: #000000" cx="346.25" cy="69.25" rx="1.85" ry="1.85"/>
      </g>
    </g>
  </g>
  <g>
    <path style="fill: none; fill-opacity:0; stroke-width: 2; stroke: #000000" d="M 189.736 559 C 185.644,559 235.227,414.965 365.865,452.29"/>
    <polygon style="fill: #000000" points="182.236,559 192.236,554 189.736,559 192.236,564 "/>
    <polygon style="fill: none; fill-opacity:0; stroke-width: 2; stroke: #000000" points="182.236,559 192.236,554 189.736,559 192.236,564 "/>
    <polygon style="fill: #000000" points="373.077,454.35 362.088,456.411 365.865,452.29 364.835,446.795 "/>
    <polygon style="fill: none; fill-opacity:0; stroke-width: 2; stroke: #000000" points="373.077,454.35 362.088,456.411 365.865,452.29 364.835,446.795 "/>
  </g>
  <g>
    <g>
      <rect style="fill: #d9d9cd" x="100" y="559" width="160" height="40"/>
      <rect style="fill: none; fill-opacity:0; stroke-width: 2; stroke: #000000" x="100" y="559" width="160" height="40"/>
      <rect style="fill: none; fill-opacity:0; stroke-width: 0.2; stroke: #000000" x="100" y="559" width="160" height="40"/>
      <line style="fill: none; fill-opacity:0; stroke-width: 0.2; stroke: #000000" x1="128" y1="575" x2="124" y2="579"/>
      <line style="fill: none; fill-opacity:0; stroke-width: 0.2; stroke: #000000" x1="124" y1="579" x2="128" y2="583"/>
      <line style="fill: none; fill-opacity:0; stroke-width: 0.2; stroke: #000000" x1="144" y1="575" x2="140" y2="579"/>
      <line style="fill: none; fill-opacity:0; stroke-width: 0.2; stroke: #000000" x1="140" y1="579" x2="144" y2="583"/>
      <line style="fill: none; fill-opacity:0; stroke-width: 0.2; stroke: #000000" x1="160" y1="575" x2="156" y2="579"/>
      <line style="fill: none; fill-opacity:0; stroke-width: 0.2; stroke: #000000" x1="156" y1="579" x2="160" y2="583"/>
      <line style="fill: none; fill-opacity:0; stroke-width: 0.2; stroke: #000000" x1="176" y1="575" x2="172" y2="579"/>
      <line style="fill: none; fill-opacity:0; stroke-width: 0.2; stroke: #000000" x1="172" y1="579" x2="176" y2="583"/>
      <line style="fill: none; fill-opacity:0; stroke-width: 0.2; stroke: #000000" x1="192" y1="575" x2="188" y2="579"/>
      <line style="fill: none; fill-opacity:0; stroke-width: 0.2; stroke: #000000" x1="188" y1="579" x2="192" y2="583"/>
      <line style="fill: none; fill-opacity:0; stroke-width: 0.2; stroke: #000000" x1="208" y1="575" x2="204" y2="579"/>
      <line style="fill: none; fill-opacity:0; stroke-width: 0.2; stroke: #000000" x1="204" y1="579" x2="208" y2="583"/>
      <line style="fill: none; fill-opacity:0; stroke-width: 0.2; stroke: #000000" x1="224" y1="575" x2="220" y2="579"/>
      <line style="fill: none; fill-opacity:0; stroke-width: 0.2; stroke: #000000" x1="220" y1="579" x2="224" y2="583"/>
      <line style="fill: none; fill-opacity:0; stroke-width: 0.2; stroke: #000000" x1="240" y1="575" x2="236" y2="579"/>
      <line style="fill: none; fill-opacity:0; stroke-width: 0.2; stroke: #000000" x1="236" y1="579" x2="240" y2="583"/>
      <line style="fill: none; fill-opacity:0; stroke-width: 0.2; stroke: #000000" x1="248" y1="587" x2="244" y2="591"/>
      <line style="fill: none; fill-opacity:0; stroke-width: 0.2; stroke: #000000" x1="244" y1="591" x2="248" y2="595"/>
      <line style="fill: none; fill-opacity:0; stroke-width: 0.2; stroke: #000000" x1="232" y1="587" x2="228" y2="591"/>
      <line style="fill: none; fill-opacity:0; stroke-width: 0.2; stroke: #000000" x1="228" y1="591" x2="232" y2="595"/>
      <line style="fill: none; fill-opacity:0; stroke-width: 0.2; stroke: #000000" x1="216" y1="587" x2="212" y2="591"/>
      <line style="fill: none; fill-opacity:0; stroke-width: 0.2; stroke: #000000" x1="212" y1="591" x2="216" y2="595"/>
      <line style="fill: none; fill-opacity:0; stroke-width: 0.2; stroke: #000000" x1="200" y1="587" x2="196" y2="591"/>
      <line style="fill: none; fill-opacity:0; stroke-width: 0.2; stroke: #000000" x1="196" y1="591" x2="200" y2="595"/>
      <line style="fill: none; fill-opacity:0; stroke-width: 0.2; stroke: #000000" x1="184" y1="587" x2="180" y2="591"/>
      <line style="fill: none; fill-opacity:0; stroke-width: 0.2; stroke: #000000" x1="180" y1="591" x2="184" y2="595"/>
      <line style="fill: none; fill-opacity:0; stroke-width: 0.2; stroke: #000000" x1="168" y1="587" x2="164" y2="591"/>
      <line style="fill: none; fill-opacity:0; stroke-width: 0.2; stroke: #000000" x1="164" y1="591" x2="168" y2="595"/>
      <line style="fill: none; fill-opacity:0; stroke-width: 0.2; stroke: #000000" x1="152" y1="587" x2="148" y2="591"/>
      <line style="fill: none; fill-opacity:0; stroke-width: 0.2; stroke: #000000" x1="148" y1="591" x2="152" y2="595"/>
      <rect style="fill: #d9d9cd" x="128" y="591" width="16" height="4"/>
      <rect style="fill: none; fill-opacity:0; stroke-width: 2; stroke: #000000" x="128" y="591" width="16" height="4"/>
      <rect style="fill: none; fill-opacity:0; stroke-width: 0.2; stroke: #000000" x="128" y="591" width="16" height="4"/>
      <polygon style="fill: #cdcdcd" points="112,579 120,587 112,595 104,587 "/>
      <polygon style="fill: none; fill-opacity:0; stroke-width: 2; stroke: #000000" points="112,579 120,587 112,595 104,587 "/>
      <polygon style="fill: none; fill-opacity:0; stroke-width: 0.2; stroke: #000000" points="112,579 120,587 112,595 104,587 "/>
      <rect style="fill: #d9d9cd" x="100" y="567" width="160" height="4"/>
      <rect style="fill: none; fill-opacity:0; stroke-width: 2; stroke: #000000" x="100" y="567" width="160" height="4"/>
      <rect style="fill: none; fill-opacity:0; stroke-width: 0.2; stroke: #000000" x="100" y="567" width="160" height="4"/>
      <rect style="fill: #cdcdcd" x="120" y="567" width="36" height="4"/>
      <rect style="fill: none; fill-opacity:0; stroke-width: 2; stroke: #000000" x="120" y="567" width="36" height="4"/>
      <rect style="fill: none; fill-opacity:0; stroke-width: 0.2; stroke: #000000" x="120" y="567" width="36" height="4"/>
    </g>
    <text style="fill: #000000;text-anchor:start;font-size:12.8;font-family:sanserif;font-style:normal;font-weight:normal" x="120" y="620">
      <tspan x="120" y="620">Erlang gameserver</tspan>
    </text>
  </g>
  <g>
    <g>
      <rect style="fill: #d9d9cd" x="660" y="259" width="160" height="40"/>
      <rect style="fill: none; fill-opacity:0; stroke-width: 2; stroke: #000000" x="660" y="259" width="160" height="40"/>
      <rect style="fill: none; fill-opacity:0; stroke-width: 0.2; stroke: #000000" x="660" y="259" width="160" height="40"/>
      <line style="fill: none; fill-opacity:0; stroke-width: 0.2; stroke: #000000" x1="688" y1="275" x2="684" y2="279"/>
      <line style="fill: none; fill-opacity:0; stroke-width: 0.2; stroke: #000000" x1="684" y1="279" x2="688" y2="283"/>
      <line style="fill: none; fill-opacity:0; stroke-width: 0.2; stroke: #000000" x1="704" y1="275" x2="700" y2="279"/>
      <line style="fill: none; fill-opacity:0; stroke-width: 0.2; stroke: #000000" x1="700" y1="279" x2="704" y2="283"/>
      <line style="fill: none; fill-opacity:0; stroke-width: 0.2; stroke: #000000" x1="720" y1="275" x2="716" y2="279"/>
      <line style="fill: none; fill-opacity:0; stroke-width: 0.2; stroke: #000000" x1="716" y1="279" x2="720" y2="283"/>
      <line style="fill: none; fill-opacity:0; stroke-width: 0.2; stroke: #000000" x1="736" y1="275" x2="732" y2="279"/>
      <line style="fill: none; fill-opacity:0; stroke-width: 0.2; stroke: #000000" x1="732" y1="279" x2="736" y2="283"/>
      <line style="fill: none; fill-opacity:0; stroke-width: 0.2; stroke: #000000" x1="752" y1="275" x2="748" y2="279"/>
      <line style="fill: none; fill-opacity:0; stroke-width: 0.2; stroke: #000000" x1="748" y1="279" x2="752" y2="283"/>
      <line style="fill: none; fill-opacity:0; stroke-width: 0.2; stroke: #000000" x1="768" y1="275" x2="764" y2="279"/>
      <line style="fill: none; fill-opacity:0; stroke-width: 0.2; stroke: #000000" x1="764" y1="279" x2="768" y2="283"/>
      <line style="fill: none; fill-opacity:0; stroke-width: 0.2; stroke: #000000" x1="784" y1="275" x2="780" y2="279"/>
      <line style="fill: none; fill-opacity:0; stroke-width: 0.2; stroke: #000000" x1="780" y1="279" x2="784" y2="283"/>
      <line style="fill: none; fill-opacity:0; stroke-width: 0.2; stroke: #000000" x1="800" y1="275" x2="796" y2="279"/>
      <line style="fill: none; fill-opacity:0; stroke-width: 0.2; stroke: #000000" x1="796" y1="279" x2="800" y2="283"/>
      <line style="fill: none; fill-opacity:0; stroke-width: 0.2; stroke: #000000" x1="808" y1="287" x2="804" y2="291"/>
      <line style="fill: none; fill-opacity:0; stroke-width: 0.2; stroke: #000000" x1="804" y1="291" x2="808" y2="295"/>
      <line style="fill: none; fill-opacity:0; stroke-width: 0.2; stroke: #000000" x1="792" y1="287" x2="788" y2="291"/>
      <line style="fill: none; fill-opacity:0; stroke-width: 0.2; stroke: #000000" x1="788" y1="291" x2="792" y2="295"/>
      <line style="fill: none; fill-opacity:0; stroke-width: 0.2; stroke: #000000" x1="776" y1="287" x2="772" y2="291"/>
      <line style="fill: none; fill-opacity:0; stroke-width: 0.2; stroke: #000000" x1="772" y1="291" x2="776" y2="295"/>
      <line style="fill: none; fill-opacity:0; stroke-width: 0.2; stroke: #000000" x1="760" y1="287" x2="756" y2="291"/>
      <line style="fill: none; fill-opacity:0; stroke-width: 0.2; stroke: #000000" x1="756" y1="291" x2="760" y2="295"/>
      <line style="fill: none; fill-opacity:0; stroke-width: 0.2; stroke: #000000" x1="744" y1="287" x2="740" y2="291"/>
      <line style="fill: none; fill-opacity:0; stroke-width: 0.2; stroke: #000000" x1="740" y1="291" x2="744" y2="295"/>
      <line style="fill: none; fill-opacity:0; stroke-width: 0.2; stroke: #000000" x1="728" y1="287" x2="724" y2="291"/>
      <line style="fill: none; fill-opacity:0; stroke-width: 0.2; stroke: #000000" x1="724" y1="291" x2="728" y2="295"/>
      <line style="fill: none; fill-opacity:0; stroke-width: 0.2; stroke: #000000" x1="712" y1="287" x2="708" y2="291"/>
      <line style="fill: none; fill-opacity:0; stroke-width: 0.2; stroke: #000000" x1="708" y1="291" x2="712" y2="295"/>
      <rect style="fill: #d9d9cd" x="688" y="291" width="16" height="4"/>
      <rect style="fill: none; fill-opacity:0; stroke-width: 2; stroke: #000000" x="688" y="291" width="16" height="4"/>
      <rect style="fill: none; fill-opacity:0; stroke-width: 0.2; stroke: #000000" x="688" y="291" width="16" height="4"/>
      <polygon style="fill: #cdcdcd" points="672,279 680,287 672,295 664,287 "/>
      <polygon style="fill: none; fill-opacity:0; stroke-width: 2; stroke: #000000" points="672,279 680,287 672,295 664,287 "/>
      <polygon style="fill: none; fill-opacity:0; stroke-width: 0.2; stroke: #000000" points="672,279 680,287 672,295 664,287 "/>
      <rect style="fill: #d9d9cd" x="660" y="267" width="160" height="4"/>
      <rect style="fill: none; fill-opacity:0; stroke-width: 2; stroke: #000000" x="660" y="267" width="160" height="4"/>
      <rect style="fill: none; fill-opacity:0; stroke-width: 0.2; stroke: #000000" x="660" y="267" width="160" height="4"/>
      <rect style="fill: #cdcdcd" x="680" y="267" width="36" height="4"/>
      <rect style="fill: none; fill-opacity:0; stroke-width: 2; stroke: #000000" x="680" y="267" width="36" height="4"/>
      <rect style="fill: none; fill-opacity:0; stroke-width: 0.2; stroke: #000000" x="680" y="267" width="36" height="4"/>
    </g>
    <text style="fill: #000000;text-anchor:start;font-size:12.8;font-family:sanserif;font-style:normal;font-weight:normal" x="700" y="320">
      <tspan x="700" y="320">ser2net server</tspan>
    </text>
  </g>
  <g>
    <g>
      <path style="fill: #0096d4" d="M 400 299.234 L 400,332.049 L 430.408,332.049 L 430.408,299.234 L 400,299.234z"/>
      <path style="fill: none; fill-opacity:0; stroke-width: 0.02; stroke: #aae6ff" d="M 400 299.234 L 400,332.049 L 430.408,332.049 L 430.408,299.234 L 400,299.234"/>
      <path style="fill: #000000" d="M 403.86 324.828 L 403.86,307.576 L 402.213,307.576 L 404.966,303.136 L 407.733,307.576 L 406.073,307.576 L 406.073,324.828 L 407.733,324.828 L 404.966,328.715 L 402.213,324.828 L 403.86,324.828z"/>
      <path style="fill: #000000" d="M 410.528 324.828 L 410.528,307.576 L 408.826,307.576 L 411.621,303.136 L 414.36,307.576 L 412.7,307.576 L 412.7,324.828 L 414.36,324.828 L 411.621,328.715 L 408.826,324.828 L 410.528,324.828z"/>
      <path style="fill: #000000" d="M 417.127 324.828 L 417.127,307.576 L 415.494,307.576 L 418.261,303.136 L 421,307.576 L 419.354,307.576 L 419.354,324.828 L 421,324.828 L 418.261,328.715 L 415.494,324.828 L 417.127,324.828z"/>
      <path style="fill: #000000" d="M 423.795 324.828 L 423.795,307.576 L 422.107,307.576 L 424.888,303.136 L 427.668,307.576 L 425.981,307.576 L 425.981,324.828 L 427.668,324.828 L 424.888,328.715 L 422.107,324.828 L 423.795,324.828z"/>
      <path style="fill: #ffffff" d="M 404.427 325.381 L 404.427,308.143 L 402.767,308.143 L 405.534,303.689 L 408.301,308.143 L 406.613,308.143 L 406.613,325.381 L 408.301,325.381 L 405.534,329.268 L 402.767,325.381 L 404.427,325.381z"/>
      <path style="fill: #ffffff" d="M 411.067 325.381 L 411.067,308.143 L 409.393,308.143 L 412.16,303.689 L 414.913,308.143 L 413.281,308.143 L 413.281,325.381 L 414.913,325.381 L 412.16,329.268 L 409.393,325.381 L 411.067,325.381z"/>
      <path style="fill: #ffffff" d="M 417.694 325.381 L 417.694,308.143 L 416.048,308.143 L 418.828,303.689 L 421.581,308.143 L 419.894,308.143 L 419.894,325.381 L 421.581,325.381 L 418.828,329.268 L 416.048,325.381 L 417.694,325.381z"/>
      <path style="fill: #ffffff" d="M 424.334 325.381 L 424.334,308.143 L 422.66,308.143 L 425.427,303.689 L 428.194,308.143 L 426.562,308.143 L 426.562,325.381 L 428.194,325.381 L 425.427,329.268 L 422.66,325.381 L 424.334,325.381z"/>
      <path style="fill: #0096d4" d="M 430.408 299.234 L 430.408,332.049 L 460.843,332.049 L 460.843,299.234 L 430.408,299.234z"/>
      <path style="fill: none; fill-opacity:0; stroke-width: 0.02; stroke: #aae6ff" d="M 430.408 299.234 L 430.408,332.049 L 460.843,332.049 L 460.843,299.234 L 430.408,299.234"/>
      <path style="fill: #005a80" d="M 460.843 299.234 L 468.59,292.027 L 468.59,324.26 L 460.843,331.482 L 460.843,299.234z"/>
      <path style="fill: none; fill-opacity:0; stroke-width: 0.02; stroke: #aae6ff" d="M 460.843 299.234 L 468.59,292.027 L 468.59,324.26 L 460.843,331.482 L 460.843,299.234"/>
      <path style="fill: #000000" d="M 434.281 324.828 L 434.281,307.576 L 432.635,307.576 L 435.402,303.136 L 438.155,307.576 L 436.495,307.576 L 436.495,324.828 L 438.155,324.828 L 435.402,328.715 L 432.635,324.828 L 434.281,324.828z"/>
      <path style="fill: #000000" d="M 440.935 324.828 L 440.935,307.576 L 439.248,307.576 L 442.042,303.136 L 444.809,307.576 L 443.135,307.576 L 443.135,324.828 L 444.809,324.828 L 442.042,328.715 L 439.248,324.828 L 440.935,324.828z"/>
      <path style="fill: #000000" d="M 447.548 324.828 L 447.548,307.576 L 445.888,307.576 L 448.655,303.136 L 451.422,307.576 L 449.789,307.576 L 449.789,324.828 L 451.422,324.828 L 448.655,328.715 L 445.888,324.828 L 447.548,324.828z"/>
      <path style="fill: #000000" d="M 454.189 324.828 L 454.189,307.576 L 452.542,307.576 L 455.323,303.136 L 458.076,307.576 L 456.402,307.576 L 456.402,324.828 L 458.076,324.828 L 455.323,328.715 L 452.542,324.828 L 454.189,324.828z"/>
      <path style="fill: #ffffff" d="M 434.835 325.381 L 434.835,308.143 L 433.174,308.143 L 435.969,303.689 L 438.722,308.143 L 437.048,308.143 L 437.048,325.381 L 438.722,325.381 L 435.969,329.268 L 433.174,325.381 L 434.835,325.381z"/>
      <path style="fill: #ffffff" d="M 441.489 325.381 L 441.489,308.143 L 439.815,308.143 L 442.568,303.689 L 445.321,308.143 L 443.702,308.143 L 443.702,325.381 L 445.321,325.381 L 442.568,329.268 L 439.815,325.381 L 441.489,325.381z"/>
      <path style="fill: #ffffff" d="M 448.102 325.381 L 448.102,308.143 L 446.455,308.143 L 449.236,303.689 L 452.003,308.143 L 450.315,308.143 L 450.315,325.381 L 452.003,325.381 L 449.236,329.268 L 446.455,325.381 L 448.102,325.381z"/>
      <path style="fill: #ffffff" d="M 454.756 325.381 L 454.756,308.143 L 453.096,308.143 L 455.849,303.689 L 458.616,308.143 L 456.955,308.143 L 456.955,325.381 L 458.616,325.381 L 455.849,329.268 L 453.096,325.381 L 454.756,325.381z"/>
      <path style="fill: #005a80" d="M 400 299.234 L 407.733,292.027 L 468.59,292.027 L 460.843,299.234 L 400,299.234z"/>
      <path style="fill: none; fill-opacity:0; stroke-width: 0.02; stroke: #003c55" d="M 400 299.234 L 407.733,292.027 L 468.59,292.027 L 460.843,299.234 L 400,299.234"/>
      <path style="fill: #0096d4" d="M 400 239.208 L 400,299.801 L 460.843,299.801 L 460.843,239.208 L 400,239.208z"/>
      <path style="fill: none; fill-opacity:0; stroke-width: 0.02; stroke: #aae6ff" d="M 400 239.208 L 400,299.801 L 460.843,299.801 L 460.843,239.208 L 400,239.208"/>
      <path style="fill: #00b4ff" d="M 400 239.208 L 407.733,232 L 468.59,232 L 460.843,239.208 L 400,239.208z"/>
      <path style="fill: none; fill-opacity:0; stroke-width: 0.02; stroke: #aae6ff" d="M 400 239.208 L 407.733,232 L 468.59,232 L 460.843,239.208 L 400,239.208"/>
      <path style="fill: #005a80" d="M 460.843 239.208 L 468.59,232 L 468.59,292.027 L 460.843,299.234 L 460.843,239.208z"/>
      <path style="fill: none; fill-opacity:0; stroke-width: 0.02; stroke: #aae6ff" d="M 460.843 239.208 L 468.59,232 L 468.59,292.027 L 460.843,299.234 L 460.843,239.208"/>
      <path style="fill: #000000" d="M 423.795 266.447 L 407.733,266.447 L 407.733,264.248 L 402.767,268.674 L 407.733,273.669 L 407.733,271.469 L 423.795,271.469 L 423.795,266.447z"/>
      <path style="fill: #000000" d="M 427.101 263.127 L 415.494,251.451 L 417.127,249.777 L 410.528,249.777 L 410.528,256.445 L 412.16,254.785 L 423.795,266.447 L 427.101,263.127z"/>
      <path style="fill: #000000" d="M 432.054 263.127 L 432.054,246.457 L 434.281,246.457 L 429.868,241.988 L 424.888,246.457 L 427.101,246.457 L 427.101,263.127 L 432.054,263.127z"/>
      <path style="fill: #000000" d="M 435.402 266.447 L 447.022,254.785 L 448.655,256.445 L 448.655,249.777 L 442.042,249.777 L 443.702,251.451 L 432.054,263.127 L 435.402,266.447z"/>
      <path style="fill: #000000" d="M 435.402 271.469 L 452.003,271.469 L 452.003,273.669 L 456.402,268.674 L 452.003,264.248 L 452.003,266.447 L 435.402,266.447 L 435.402,271.469z"/>
      <path style="fill: #000000" d="M 432.054 274.803 L 443.702,286.465 L 442.042,288.125 L 448.655,287.572 L 448.655,281.457 L 447.022,283.145 L 435.402,271.469 L 432.054,274.803z"/>
      <path style="fill: #000000" d="M 427.101 274.803 L 427.101,291.487 L 424.888,291.487 L 429.868,295.914 L 434.281,291.487 L 432.054,291.487 L 432.054,274.803 L 427.101,274.803z"/>
      <path style="fill: #000000" d="M 423.795 271.469 L 412.16,283.145 L 410.528,281.457 L 410.528,288.125 L 417.127,288.125 L 415.494,286.465 L 427.101,274.803 L 423.795,271.469z"/>
      <path style="fill: #ffffff" d="M 424.334 267.014 L 408.301,267.014 L 408.301,264.787 L 403.32,269.242 L 408.301,274.236 L 408.301,272.009 L 424.334,272.009 L 424.334,267.014z"/>
      <path style="fill: #ffffff" d="M 427.668 263.667 L 416.048,252.018 L 417.694,250.33 L 411.067,250.33 L 411.067,257.012 L 412.7,255.324 L 424.334,267.014 L 427.668,263.667z"/>
      <path style="fill: #ffffff" d="M 432.635 263.667 L 432.635,246.982 L 434.835,246.982 L 430.408,242.556 L 425.427,246.982 L 427.668,246.982 L 427.668,263.667 L 432.635,263.667z"/>
      <path style="fill: #ffffff" d="M 435.969 267.014 L 447.548,255.324 L 449.236,257.012 L 449.236,250.33 L 442.568,250.33 L 444.256,252.018 L 432.635,263.667 L 435.969,267.014z"/>
      <path style="fill: #ffffff" d="M 435.969 272.009 L 452.542,272.009 L 452.542,274.236 L 456.955,269.242 L 452.542,264.787 L 452.542,267.014 L 435.969,267.014 L 435.969,272.009z"/>
      <path style="fill: #ffffff" d="M 432.635 275.356 L 444.256,287.005 L 442.568,288.693 L 449.236,288.125 L 449.236,282.011 L 447.548,283.698 L 435.969,272.009 L 432.635,275.356z"/>
      <path style="fill: #ffffff" d="M 427.668 275.356 L 427.668,292.027 L 425.427,292.027 L 430.408,296.467 L 434.835,292.027 L 432.635,292.027 L 432.635,275.356 L 427.668,275.356z"/>
      <path style="fill: #ffffff" d="M 424.334 272.009 L 412.7,283.698 L 411.067,282.011 L 411.067,288.693 L 417.694,288.693 L 416.048,287.005 L 427.668,275.356 L 424.334,272.009z"/>
      <path style="fill: #000000" d="M 438.694 269.491 L 438.68,269.048 L 438.639,268.578 L 438.57,268.107 L 438.514,267.665 L 438.39,267.194 L 438.265,266.752 L 438.113,266.323 L 437.947,265.894 L 437.754,265.465 L 437.532,265.05 L 437.311,264.649 L 437.048,264.261 L 436.799,263.874 L 436.481,263.528 L 436.176,263.182 L 435.858,262.864 L 435.512,262.532 L 435.153,262.255 L 434.765,261.965 L 434.406,261.716 L 434.004,261.481 L 433.576,261.259 L 433.174,261.066 L 432.732,260.9 L 432.317,260.761 L 431.846,260.623 L 431.417,260.512 L 430.947,260.443 L 430.491,260.374 L 430.034,260.36 L 429.564,260.332 L 429.564,260.332 L 429.107,260.36 L 428.651,260.374 L 428.18,260.443 L 427.724,260.512 L 427.295,260.623 L 426.825,260.761 L 426.423,260.9 L 425.967,261.066 L 425.566,261.259 L 425.151,261.481 L 424.736,261.716 L 424.376,261.965 L 424.002,262.255 L 423.643,262.532 L 423.297,262.864 L 422.979,263.182 L 422.647,263.528 L 422.342,263.874 L 422.093,264.261 L 421.83,264.649 L 421.609,265.05 L 421.388,265.465 L 421.194,265.894 L 421.028,266.323 L 420.89,266.752 L 420.751,267.194 L 420.641,267.665 L 420.571,268.107 L 420.502,268.578 L 420.461,269.048 L 420.447,269.491 L 420.447,269.491 L 420.461,269.961 L 420.502,270.431 L 420.571,270.874 L 420.641,271.344 L 420.751,271.787 L 420.89,272.23 L 421.028,272.673 L 421.194,273.115 L 421.388,273.544 L 421.609,273.931 L 421.83,274.333 L 422.093,274.72 L 422.342,275.107 L 422.647,275.453 L 422.979,275.799 L 423.297,276.131 L 423.643,276.449 L 424.002,276.726 L 424.376,277.017 L 424.736,277.266 L 425.151,277.501 L 425.566,277.736 L 425.967,277.916 L 426.423,278.082 L 426.825,278.234 L 427.295,278.358 L 427.724,278.469 L 428.18,278.538 L 428.651,278.607 L 429.107,278.649 L 429.564,278.649 L 429.564,278.649 L 430.034,278.649 L 430.491,278.607 L 430.947,278.538 L 431.417,278.469 L 431.846,278.358 L 432.317,278.234 L 432.732,278.082 L 433.174,277.916 L 433.576,277.736 L 434.004,277.501 L 434.406,277.266 L 434.765,277.017 L 435.153,276.726 L 435.512,276.449 L 435.858,276.131 L 436.176,275.799 L 436.481,275.453 L 436.799,275.107 L 437.048,274.72 L 437.311,274.333 L 437.532,273.931 L 437.754,273.544 L 437.947,273.115 L 438.113,272.673 L 438.265,272.23 L 438.39,271.787 L 438.514,271.344 L 438.57,270.874 L 438.639,270.431 L 438.68,269.961 L 438.694,269.491z"/>
      <path style="fill: #ffffff" d="M 439.787 270.597 L 439.773,270.141 L 439.76,269.671 L 439.677,269.214 L 439.594,268.744 L 439.483,268.287 L 439.372,267.844 L 439.234,267.416 L 439.068,266.987 L 438.874,266.558 L 438.639,266.157 L 438.404,265.755 L 438.169,265.354 L 437.878,264.981 L 437.588,264.635 L 437.283,264.289 L 436.965,263.957 L 436.619,263.639 L 436.259,263.362 L 435.872,263.085 L 435.499,262.823 L 435.097,262.587 L 434.696,262.366 L 434.267,262.172 L 433.838,262.006 L 433.41,261.854 L 432.967,261.744 L 432.51,261.619 L 432.054,261.55 L 431.611,261.481 L 431.127,261.453 L 430.67,261.439 L 430.67,261.439 L 430.228,261.453 L 429.744,261.481 L 429.287,261.55 L 428.844,261.619 L 428.388,261.744 L 427.945,261.854 L 427.502,262.006 L 427.074,262.172 L 426.659,262.366 L 426.257,262.587 L 425.842,262.823 L 425.469,263.085 L 425.081,263.362 L 424.722,263.639 L 424.376,263.957 L 424.058,264.289 L 423.753,264.635 L 423.463,264.981 L 423.186,265.354 L 422.951,265.755 L 422.688,266.157 L 422.481,266.558 L 422.301,266.987 L 422.121,267.416 L 421.969,267.844 L 421.844,268.287 L 421.747,268.744 L 421.651,269.214 L 421.609,269.671 L 421.581,270.141 L 421.568,270.597 L 421.568,270.597 L 421.581,271.054 L 421.609,271.524 L 421.651,271.981 L 421.747,272.437 L 421.844,272.894 L 421.969,273.337 L 422.121,273.779 L 422.301,274.208 L 422.481,274.637 L 422.688,275.038 L 422.951,275.439 L 423.186,275.841 L 423.463,276.228 L 423.753,276.574 L 424.058,276.92 L 424.376,277.238 L 424.722,277.542 L 425.081,277.833 L 425.469,278.123 L 425.842,278.386 L 426.257,278.607 L 426.659,278.829 L 427.074,279.036 L 427.502,279.188 L 427.945,279.341 L 428.388,279.465 L 428.844,279.562 L 429.287,279.645 L 429.744,279.728 L 430.228,279.742 L 430.67,279.77 L 430.67,279.77 L 431.127,279.742 L 431.611,279.728 L 432.054,279.645 L 432.51,279.562 L 432.967,279.465 L 433.41,279.341 L 433.838,279.188 L 434.267,279.036 L 434.696,278.829 L 435.097,278.607 L 435.499,278.386 L 435.872,278.123 L 436.259,277.833 L 436.619,277.542 L 436.965,277.238 L 437.283,276.92 L 437.588,276.574 L 437.878,276.228 L 438.169,275.841 L 438.404,275.439 L 438.639,275.038 L 438.874,274.637 L 439.068,274.208 L 439.234,273.779 L 439.372,273.337 L 439.483,272.894 L 439.594,272.437 L 439.677,271.981 L 439.76,271.524 L 439.773,271.054 L 439.787,270.597z"/>
      <path style="fill: #e4405d" d="M 439.234 270.058 L 439.22,269.615 L 439.192,269.131 L 439.109,268.674 L 439.04,268.232 L 438.916,267.761 L 438.791,267.319 L 438.667,266.89 L 438.501,266.447 L 438.293,266.018 L 438.072,265.631 L 437.85,265.216 L 437.588,264.829 L 437.339,264.441 L 437.02,264.095 L 436.702,263.75 L 436.384,263.431 L 436.038,263.099 L 435.678,262.823 L 435.305,262.532 L 434.931,262.283 L 434.53,262.048 L 434.115,261.827 L 433.714,261.633 L 433.257,261.481 L 432.856,261.329 L 432.386,261.19 L 431.957,261.093 L 431.487,261.01 L 431.03,260.941 L 430.574,260.914 L 430.103,260.9 L 430.103,260.9 L 429.647,260.914 L 429.19,260.941 L 428.72,261.01 L 428.263,261.093 L 427.834,261.19 L 427.364,261.329 L 426.949,261.481 L 426.506,261.633 L 426.105,261.827 L 425.69,262.048 L 425.275,262.283 L 424.902,262.532 L 424.528,262.823 L 424.168,263.099 L 423.823,263.431 L 423.504,263.75 L 423.186,264.095 L 422.882,264.441 L 422.633,264.829 L 422.37,265.216 L 422.135,265.631 L 421.927,266.018 L 421.734,266.447 L 421.568,266.89 L 421.415,267.319 L 421.277,267.761 L 421.166,268.232 L 421.097,268.674 L 421.042,269.131 L 421,269.615 L 420.986,270.058 L 420.986,270.058 L 421,270.514 L 421.042,270.999 L 421.097,271.441 L 421.166,271.898 L 421.277,272.354 L 421.415,272.811 L 421.568,273.24 L 421.734,273.669 L 421.927,274.111 L 422.135,274.513 L 422.37,274.9 L 422.633,275.287 L 422.882,275.675 L 423.186,276.02 L 423.504,276.366 L 423.823,276.698 L 424.168,277.017 L 424.528,277.307 L 424.902,277.584 L 425.275,277.833 L 425.69,278.082 L 426.105,278.303 L 426.506,278.483 L 426.949,278.649 L 427.364,278.801 L 427.834,278.926 L 428.263,279.036 L 428.72,279.119 L 429.19,279.175 L 429.647,279.202 L 430.103,279.216 L 430.103,279.216 L 430.574,279.202 L 431.03,279.175 L 431.487,279.119 L 431.957,279.036 L 432.386,278.926 L 432.856,278.801 L 433.257,278.649 L 433.714,278.483 L 434.115,278.303 L 434.53,278.082 L 434.931,277.833 L 435.305,277.584 L 435.678,277.307 L 436.038,277.017 L 436.384,276.698 L 436.702,276.366 L 437.02,276.02 L 437.339,275.675 L 437.588,275.287 L 437.85,274.9 L 438.072,274.513 L 438.293,274.111 L 438.501,273.669 L 438.667,273.24 L 438.791,272.811 L 438.916,272.354 L 439.04,271.898 L 439.109,271.441 L 439.192,270.999 L 439.22,270.514 L 439.234,270.058z"/>
    </g>
    <text style="fill: #000000;text-anchor:start;font-size:12.8;font-family:sanserif;font-style:normal;font-weight:normal" x="380" y="352">
      <tspan x="380" y="352">LED server board</tspan>
    </text>
  </g>
  <g>
    <path style="fill: none; fill-opacity:0; stroke-width: 2; stroke: #000000" d="M 590.017 482.95 C 642.307,482.95 597.974,299 650.264,299"/>
    <polygon style="fill: #000000" points="582.517,482.95 592.517,477.95 590.017,482.95 592.517,487.95 "/>
    <polygon style="fill: none; fill-opacity:0; stroke-width: 2; stroke: #000000" points="582.517,482.95 592.517,477.95 590.017,482.95 592.517,487.95 "/>
    <polygon style="fill: #000000" points="657.764,299 647.764,304 650.264,299 647.764,294 "/>
    <polygon style="fill: none; fill-opacity:0; stroke-width: 2; stroke: #000000" points="657.764,299 647.764,304 650.264,299 647.764,294 "/>
  </g>
  <g>
    <line style="fill: none; fill-opacity:0; stroke-width: 2; stroke-dasharray: 20 4 4 4 4 4; stroke: #000000" x1="647.264" y1="280.948" x2="478.339" y2="280.052"/>
    <polygon style="fill: #000000" points="654.764,280.988 644.738,285.935 647.264,280.948 644.791,275.935 "/>
    <polygon style="fill: none; fill-opacity:0; stroke-width: 2; stroke: #000000" points="654.764,280.988 644.738,285.935 647.264,280.948 644.791,275.935 "/>
    <polygon style="fill: #000000" points="470.839,280.012 480.866,275.065 478.339,280.052 480.812,285.065 "/>
    <polygon style="fill: none; fill-opacity:0; stroke-width: 2; stroke: #000000" points="470.839,280.012 480.866,275.065 478.339,280.052 480.812,285.065 "/>
  </g>
  <text style="fill: #000000;text-anchor:start;font-size:12.8;font-family:sanserif;font-style:normal;font-weight:normal" x="538" y="269">
    <tspan x="538" y="269">Serial</tspan>
  </text>
  <text style="fill: #000000;text-anchor:start;font-size:12.8;font-family:sanserif;font-style:normal;font-weight:normal" x="617" y="389">
    <tspan x="617" y="389"></tspan>
  </text>
  <g>
    <path style="fill: #626248" d="M 179.85 441.715 L 179.824,441.281 L 179.745,440.861 L 179.614,440.441 L 179.43,440.021 L 179.207,439.614 L 178.931,439.207 L 178.603,438.8 L 178.222,438.406 L 177.802,437.999 L 177.342,437.631 L 176.843,437.263 L 176.266,436.909 L 175.675,436.568 L 175.044,436.239 L 174.362,435.924 L 173.653,435.609 L 172.904,435.333 L 172.116,435.044 L 171.302,434.795 L 170.449,434.585 L 169.582,434.362 L 168.689,434.165 L 167.77,433.981 L 166.838,433.81 L 165.88,433.692 L 164.908,433.561 L 163.923,433.482 L 162.938,433.403 L 161.927,433.351 L 160.929,433.311 L 159.918,433.311 L 159.918,433.311 L 158.907,433.311 L 157.896,433.351 L 156.899,433.403 L 155.901,433.482 L 154.916,433.561 L 153.944,433.692 L 152.986,433.81 L 152.053,433.981 L 151.134,434.165 L 150.255,434.362 L 149.375,434.585 L 148.535,434.795 L 147.721,435.044 L 146.933,435.333 L 146.184,435.609 L 145.475,435.924 L 144.793,436.239 L 144.149,436.568 L 143.558,436.909 L 143.007,437.263 L 142.495,437.631 L 142.022,437.999 L 141.602,438.406 L 141.234,438.8 L 140.906,439.207 L 140.617,439.614 L 140.407,440.021 L 140.21,440.441 L 140.092,440.861 L 140,441.281 L 140,441.715 L 140,441.715 L 140,442.135 L 140.092,442.568 L 140.21,442.988 L 140.407,443.408 L 140.617,443.815 L 140.906,444.222 L 141.234,444.629 L 141.602,445.023 L 142.022,445.417 L 142.495,445.785 L 143.007,446.153 L 143.558,446.52 L 144.149,446.862 L 144.793,447.19 L 145.475,447.505 L 146.184,447.807 L 146.933,448.083 L 147.721,448.372 L 148.535,448.621 L 149.375,448.831 L 150.255,449.067 L 151.134,449.264 L 152.053,449.435 L 152.986,449.606 L 153.944,449.724 L 154.916,449.855 L 155.901,449.947 L 156.899,450.026 L 157.896,450.065 L 158.907,450.105 L 159.918,450.118 L 159.918,450.118 L 160.929,450.105 L 161.927,450.065 L 162.938,450.026 L 163.923,449.947 L 164.908,449.855 L 165.88,449.724 L 166.838,449.606 L 167.77,449.435 L 168.689,449.264 L 169.582,449.067 L 170.449,448.831 L 171.302,448.621 L 172.116,448.372 L 172.904,448.083 L 173.653,447.807 L 174.362,447.505 L 175.044,447.19 L 175.675,446.862 L 176.266,446.52 L 176.843,446.153 L 177.342,445.785 L 177.802,445.417 L 178.222,445.023 L 178.603,444.629 L 178.931,444.222 L 179.207,443.815 L 179.43,443.408 L 179.614,442.988 L 179.745,442.568 L 179.824,442.135 L 179.85,441.715z"/>
    <path style="fill: none; fill-opacity:0; stroke-width: 0.56; stroke: #494936" d="M 179.496 441.347 L 179.469,440.927 L 179.391,440.493 L 179.285,440.073 L 179.102,439.64 L 178.865,439.22 L 178.59,438.813 L 178.261,438.406 L 177.894,438.025 L 177.5,437.644 L 177.014,437.25 L 176.515,436.896 L 175.964,436.528 L 175.373,436.187 L 174.729,435.859 L 174.073,435.53 L 173.364,435.255 L 172.615,434.953 L 171.841,434.69 L 171.027,434.44 L 170.199,434.204 L 169.32,433.981 L 168.44,433.784 L 167.534,433.613 L 166.602,433.456 L 165.656,433.311 L 164.698,433.193 L 163.713,433.101 L 162.728,433.036 L 161.744,432.983 L 160.759,432.944 L 159.748,432.917 L 159.748,432.917 L 158.75,432.944 L 157.739,432.983 L 156.754,433.036 L 155.756,433.101 L 154.798,433.193 L 153.826,433.311 L 152.881,433.456 L 151.948,433.613 L 151.042,433.784 L 150.176,433.981 L 149.296,434.204 L 148.469,434.44 L 147.642,434.69 L 146.867,434.953 L 146.132,435.255 L 145.423,435.53 L 144.753,435.859 L 144.11,436.187 L 143.532,436.528 L 142.967,436.896 L 142.468,437.25 L 142.009,437.644 L 141.589,438.025 L 141.221,438.406 L 140.893,438.813 L 140.617,439.22 L 140.407,439.64 L 140.21,440.073 L 140.079,440.493 L 140.013,440.927 L 140,441.347 L 140,441.347 L 140.013,441.767 L 140.079,442.214 L 140.21,442.634 L 140.407,443.054 L 140.617,443.474 L 140.893,443.868 L 141.221,444.275 L 141.589,444.669 L 142.009,445.05 L 142.468,445.444 L 142.967,445.785 L 143.532,446.166 L 144.11,446.507 L 144.753,446.835 L 145.423,447.164 L 146.132,447.439 L 146.867,447.741 L 147.642,448.004 L 148.469,448.253 L 149.296,448.503 L 150.176,448.713 L 151.042,448.91 L 151.948,449.081 L 152.881,449.238 L 153.826,449.383 L 154.798,449.514 L 155.756,449.606 L 156.754,449.658 L 157.739,449.724 L 158.75,449.737 L 159.748,449.763 L 159.748,449.763 L 160.759,449.737 L 161.744,449.724 L 162.728,449.658 L 163.713,449.606 L 164.698,449.514 L 165.656,449.383 L 166.602,449.238 L 167.534,449.081 L 168.44,448.91 L 169.32,448.713 L 170.199,448.503 L 171.027,448.253 L 171.841,448.004 L 172.615,447.741 L 173.364,447.439 L 174.073,447.164 L 174.729,446.835 L 175.373,446.507 L 175.964,446.166 L 176.515,445.785 L 177.014,445.444 L 177.5,445.05 L 177.894,444.669 L 178.261,444.275 L 178.59,443.868 L 178.865,443.474 L 179.102,443.054 L 179.285,442.634 L 179.391,442.214 L 179.469,441.767 L 179.496,441.347"/>
    <path style="fill: none; fill-opacity:0; stroke-width: 0.8; stroke: #494936" d="M 141.444 442.227 L 141.51,442.568 L 141.615,442.896 L 141.773,443.251 L 141.996,443.579 L 142.272,443.907 L 142.574,444.236 L 142.967,444.564 L 143.401,444.892 L 143.887,445.194 L 144.399,445.496 L 145.003,445.785 L 145.607,446.048 L 146.289,446.336 L 146.998,446.586 L 147.76,446.835 L 148.548,447.059 L 149.388,447.269 L 150.255,447.492 L 151.134,447.676 L 152.053,447.846 L 153.025,448.004"/>
    <path style="fill: none; fill-opacity:0; stroke-width: 0.8; stroke: #a5a585" d="M 153.472 435.031 L 152.474,435.202 L 151.528,435.373 L 150.596,435.57 L 149.703,435.78 L 148.837,436.016 L 148.023,436.266 L 147.235,436.515 L 146.486,436.791 L 145.804,437.08 L 145.16,437.368 L 144.556,437.67 L 143.992,437.999 L 143.493,438.327 L 143.033,438.655 L 142.639,439.023 L 142.311,439.364 L 142.022,439.719 L 141.799,440.1 L 141.615,440.454"/>
    <path style="fill: #a5a585" d="M 184.603 441.518 L 184.616,400 L 183.119,400.066 L 181.636,400.223 L 180.152,400.473 L 178.668,400.814 L 177.211,401.287 L 175.78,401.851 L 174.362,402.508 L 172.957,403.269 L 171.604,404.11 L 170.278,405.068 L 168.965,406.079 L 167.718,407.222 L 166.51,408.43 L 165.354,409.716 L 164.212,411.069 L 163.148,412.539 L 162.124,414.036 L 161.166,415.638 L 160.26,417.292 L 159.42,418.999 L 158.645,420.759 L 157.923,422.571 L 157.266,424.448 L 156.702,426.339 L 156.19,428.296 L 155.756,430.265 L 155.375,432.287 L 155.073,434.296 L 154.85,436.357 L 154.706,438.406 L 154.627,440.467 L 154.627,442.555 L 154.706,444.616 L 154.85,446.678 L 155.073,448.726 L 155.375,450.748 L 155.756,452.77 L 156.19,454.74 L 156.702,456.683 L 157.266,458.587 L 157.923,460.451 L 158.645,462.276 L 159.42,464.036 L 160.26,465.743 L 161.166,467.397 L 162.124,468.986 L 163.148,470.496 L 164.212,471.953 L 165.354,473.319 L 166.51,474.606 L 167.718,475.814 L 168.965,476.943 L 170.278,477.967 L 171.604,478.912 L 172.957,479.766 L 174.362,480.527 L 175.78,481.184 L 177.211,481.748 L 178.668,482.208 L 180.152,482.563 L 181.636,482.812 L 183.119,482.97 L 184.616,483.022 L 184.603,441.518z"/>
    <path style="fill: none; fill-opacity:0; stroke-width: 0.56; stroke: #494936" d="M 184.616 400 L 183.119,400.066 L 181.636,400.223 L 180.139,400.46 L 178.668,400.814 L 177.198,401.3 L 175.78,401.851 L 174.362,402.508 L 172.944,403.256 L 171.591,404.11 L 170.278,405.055 L 168.965,406.079 L 167.731,407.208 L 166.497,408.43 L 165.328,409.716 L 164.212,411.069 L 163.148,412.539 L 162.124,414.023 L 161.153,415.638 L 160.247,417.279 L 159.42,418.986 L 158.632,420.759 L 157.923,422.558 L 157.266,424.435 L 156.688,426.339 L 156.176,428.296 L 155.73,430.278 L 155.349,432.287 L 155.073,434.309 L 154.85,436.357 L 154.706,438.406 L 154.627,440.467 L 154.627,442.555 L 154.706,444.616 L 154.85,446.678 L 155.073,448.713 L 155.349,450.748 L 155.73,452.757 L 156.176,454.74 L 156.688,456.683 L 157.266,458.6 L 157.923,460.464 L 158.632,462.276 L 159.42,464.049 L 160.247,465.756 L 161.153,467.397 L 162.124,468.999 L 163.148,470.496 L 164.212,471.953 L 165.328,473.319 L 166.497,474.606 L 167.731,475.827 L 168.965,476.943 L 170.278,477.98 L 171.591,478.912 L 172.944,479.779 L 174.362,480.527 L 175.78,481.184 L 177.198,481.735 L 178.668,482.208 L 180.139,482.563 L 181.636,482.812 L 183.119,482.97 L 184.616,483.022"/>
    <path style="fill: #c9c9b6" d="M 195.935 441.518 L 195.935,439.417 L 195.882,437.316 L 195.803,435.215 L 195.698,433.154 L 195.58,431.105 L 195.409,429.083 L 195.226,427.074 L 195.015,425.144 L 194.766,423.214 L 194.49,421.363 L 194.201,419.564 L 193.873,417.791 L 193.532,416.084 L 193.177,414.469 L 192.77,412.894 L 192.363,411.41 L 191.917,410.005 L 191.47,408.679 L 190.998,407.445 L 190.512,406.289 L 190.013,405.213 L 189.501,404.241 L 188.962,403.361 L 188.424,402.587 L 187.859,401.891 L 187.308,401.313 L 186.743,400.853 L 186.166,400.473 L 185.588,400.223 L 185.01,400.053 L 184.419,400 L 184.419,400 L 183.829,400.053 L 183.251,400.223 L 182.673,400.473 L 182.095,400.853 L 181.531,401.313 L 180.966,401.891 L 180.415,402.587 L 179.876,403.361 L 179.338,404.241 L 178.826,405.213 L 178.327,406.289 L 177.841,407.445 L 177.368,408.679 L 176.922,410.005 L 176.476,411.41 L 176.069,412.894 L 175.675,414.469 L 175.307,416.084 L 174.966,417.791 L 174.637,419.564 L 174.349,421.363 L 174.073,423.214 L 173.823,425.144 L 173.613,427.074 L 173.429,429.083 L 173.259,431.105 L 173.154,433.154 L 173.036,435.215 L 172.957,437.316 L 172.904,439.417 L 172.904,441.518 L 172.904,441.518 L 172.904,443.618 L 172.957,445.706 L 173.036,447.807 L 173.154,449.868 L 173.259,451.93 L 173.429,453.952 L 173.613,455.948 L 173.823,457.891 L 174.073,459.808 L 174.349,461.672 L 174.637,463.471 L 174.966,465.244 L 175.307,466.924 L 175.675,468.566 L 176.069,470.128 L 176.476,471.612 L 176.922,473.017 L 177.368,474.356 L 177.841,475.59 L 178.327,476.746 L 178.826,477.823 L 179.338,478.794 L 179.876,479.674 L 180.415,480.449 L 180.966,481.131 L 181.531,481.709 L 182.095,482.182 L 182.673,482.563 L 183.251,482.812 L 183.829,482.983 L 184.419,483.035 L 184.419,483.035 L 185.01,482.983 L 185.588,482.812 L 186.166,482.563 L 186.743,482.182 L 187.308,481.709 L 187.859,481.131 L 188.424,480.449 L 188.962,479.674 L 189.501,478.794 L 190.013,477.823 L 190.512,476.746 L 190.998,475.59 L 191.47,474.356 L 191.917,473.017 L 192.363,471.612 L 192.77,470.128 L 193.177,468.566 L 193.532,466.924 L 193.873,465.244 L 194.201,463.471 L 194.49,461.672 L 194.766,459.808 L 195.015,457.891 L 195.226,455.948 L 195.409,453.952 L 195.58,451.93 L 195.698,449.868 L 195.803,447.807 L 195.882,445.706 L 195.935,443.618 L 195.935,441.518z"/>
    <path style="fill: none; fill-opacity:0; stroke-width: 0.56; stroke: #494936" d="M 195.58 441.347 L 195.567,439.259 L 195.527,437.172 L 195.449,435.084 L 195.344,433.036 L 195.226,431 L 195.068,428.965 L 194.871,426.996 L 194.661,425.039 L 194.411,423.135 L 194.162,421.297 L 193.86,419.459 L 193.545,417.726 L 193.203,416.058 L 192.849,414.417 L 192.455,412.868 L 192.048,411.397 L 191.628,409.979 L 191.181,408.666 L 190.709,407.419 L 190.249,406.276 L 189.75,405.213 L 189.238,404.241 L 188.713,403.348 L 188.175,402.587 L 187.623,401.891 L 187.098,401.313 L 186.533,400.853 L 185.956,400.473 L 185.391,400.223 L 184.826,400.066 L 184.236,400 L 184.236,400 L 183.671,400.066 L 183.093,400.223 L 182.529,400.473 L 181.964,400.853 L 181.386,401.313 L 180.861,401.891 L 180.31,402.587 L 179.771,403.348 L 179.259,404.241 L 178.734,405.213 L 178.235,406.276 L 177.762,407.419 L 177.303,408.666 L 176.856,409.979 L 176.436,411.397 L 176.029,412.868 L 175.648,414.417 L 175.281,416.058 L 174.939,417.726 L 174.611,419.459 L 174.322,421.297 L 174.073,423.135 L 173.823,425.039 L 173.613,426.996 L 173.429,428.965 L 173.259,431 L 173.154,433.036 L 173.022,435.084 L 172.944,437.172 L 172.904,439.259 L 172.904,441.347 L 172.904,441.347 L 172.904,443.421 L 172.944,445.522 L 173.022,447.623 L 173.154,449.658 L 173.259,451.693 L 173.429,453.729 L 173.613,455.698 L 173.823,457.655 L 174.073,459.558 L 174.322,461.41 L 174.611,463.222 L 174.939,464.968 L 175.281,466.649 L 175.648,468.29 L 176.029,469.839 L 176.436,471.323 L 176.856,472.715 L 177.303,474.041 L 177.762,475.288 L 178.235,476.431 L 178.734,477.494 L 179.259,478.466 L 179.771,479.346 L 180.31,480.12 L 180.861,480.803 L 181.386,481.381 L 181.964,481.853 L 182.529,482.221 L 183.093,482.484 L 183.671,482.641 L 184.236,482.694 L 184.236,482.694 L 184.826,482.641 L 185.391,482.484 L 185.956,482.221 L 186.533,481.853 L 187.098,481.381 L 187.623,480.803 L 188.175,480.12 L 188.713,479.346 L 189.238,478.466 L 189.75,477.494 L 190.249,476.431 L 190.709,475.288 L 191.181,474.041 L 191.628,472.715 L 192.048,471.323 L 192.455,469.839 L 192.849,468.29 L 193.203,466.649 L 193.545,464.968 L 193.86,463.222 L 194.162,461.41 L 194.411,459.558 L 194.661,457.655 L 194.871,455.698 L 195.068,453.729 L 195.226,451.693 L 195.344,449.658 L 195.449,447.623 L 195.527,445.522 L 195.567,443.421 L 195.58,441.347"/>
    <path style="fill: #626248" d="M 182.03 441.715 L 182.017,440.953 L 181.99,440.205 L 181.964,439.443 L 181.912,438.695 L 181.846,437.959 L 181.767,437.224 L 181.688,436.502 L 181.57,435.806 L 181.452,435.11 L 181.321,434.44 L 181.176,433.784 L 181.032,433.154 L 180.848,432.537 L 180.664,431.933 L 180.467,431.381 L 180.257,430.856 L 180.047,430.344 L 179.837,429.858 L 179.601,429.412 L 179.364,428.978 L 179.115,428.611 L 178.865,428.256 L 178.603,427.928 L 178.327,427.652 L 178.051,427.403 L 177.789,427.193 L 177.5,427.035 L 177.224,426.891 L 176.935,426.799 L 176.646,426.746 L 176.371,426.72 L 176.371,426.72 L 176.082,426.746 L 175.793,426.799 L 175.504,426.891 L 175.228,427.035 L 174.939,427.193 L 174.677,427.403 L 174.401,427.652 L 174.138,427.928 L 173.863,428.256 L 173.613,428.611 L 173.364,428.978 L 173.127,429.412 L 172.904,429.858 L 172.681,430.344 L 172.471,430.856 L 172.261,431.381 L 172.09,431.933 L 171.88,432.537 L 171.722,433.154 L 171.565,433.784 L 171.434,434.44 L 171.276,435.11 L 171.158,435.806 L 171.066,436.502 L 170.961,437.224 L 170.882,437.959 L 170.817,438.695 L 170.777,439.443 L 170.738,440.205 L 170.711,440.953 L 170.698,441.715 L 170.698,441.715 L 170.711,442.476 L 170.738,443.225 L 170.777,443.986 L 170.817,444.721 L 170.882,445.457 L 170.961,446.205 L 171.066,446.927 L 171.158,447.623 L 171.276,448.319 L 171.434,448.989 L 171.565,449.645 L 171.722,450.275 L 171.88,450.879 L 172.09,451.483 L 172.261,452.035 L 172.471,452.573 L 172.681,453.085 L 172.904,453.571 L 173.127,454.004 L 173.364,454.438 L 173.613,454.818 L 173.863,455.173 L 174.138,455.501 L 174.401,455.777 L 174.677,456.026 L 174.939,456.237 L 175.228,456.394 L 175.504,456.539 L 175.793,456.63 L 176.082,456.683 L 176.371,456.709 L 176.371,456.709 L 176.646,456.683 L 176.935,456.63 L 177.224,456.539 L 177.5,456.394 L 177.789,456.237 L 178.051,456.026 L 178.327,455.777 L 178.603,455.501 L 178.865,455.173 L 179.115,454.818 L 179.364,454.438 L 179.601,454.004 L 179.837,453.571 L 180.047,453.085 L 180.257,452.573 L 180.467,452.035 L 180.664,451.483 L 180.848,450.879 L 181.032,450.275 L 181.176,449.645 L 181.321,448.989 L 181.452,448.319 L 181.57,447.623 L 181.688,446.927 L 181.767,446.205 L 181.846,445.457 L 181.912,444.721 L 181.964,443.986 L 181.99,443.225 L 182.017,442.476 L 182.03,441.715z"/>
    <path style="fill: none; fill-opacity:0; stroke-width: 0.56; stroke: #494936" d="M 181.688 441.347 L 181.688,440.598 L 181.649,439.811 L 181.61,439.062 L 181.57,438.327 L 181.504,437.579 L 181.439,436.843 L 181.334,436.147 L 181.229,435.438 L 181.111,434.742 L 180.979,434.06 L 180.861,433.403 L 180.717,432.786 L 180.546,432.169 L 180.375,431.578 L 180.178,431 L 179.981,430.488 L 179.771,429.95 L 179.548,429.49 L 179.338,429.031 L 179.102,428.624 L 178.865,428.23 L 178.616,427.888 L 178.366,427.573 L 178.104,427.284 L 177.841,427.035 L 177.579,426.825 L 177.303,426.654 L 177.027,426.536 L 176.738,426.418 L 176.476,426.352 L 176.187,426.339 L 176.187,426.339 L 175.924,426.352 L 175.648,426.418 L 175.373,426.536 L 175.097,426.654 L 174.808,426.825 L 174.545,427.035 L 174.283,427.284 L 174.02,427.573 L 173.771,427.888 L 173.521,428.23 L 173.285,428.624 L 173.049,429.031 L 172.839,429.49 L 172.615,429.95 L 172.418,430.488 L 172.221,431 L 172.024,431.578 L 171.854,432.169 L 171.683,432.786 L 171.526,433.403 L 171.394,434.06 L 171.276,434.742 L 171.158,435.438 L 171.066,436.147 L 170.961,436.843 L 170.895,437.579 L 170.817,438.327 L 170.777,439.062 L 170.738,439.811 L 170.725,440.598 L 170.698,441.347 L 170.698,441.347 L 170.725,442.095 L 170.738,442.883 L 170.777,443.618 L 170.817,444.367 L 170.895,445.102 L 170.961,445.851 L 171.066,446.56 L 171.158,447.269 L 171.276,447.965 L 171.394,448.634 L 171.526,449.291 L 171.683,449.921 L 171.854,450.538 L 172.024,451.129 L 172.221,451.693 L 172.418,452.219 L 172.615,452.731 L 172.839,453.217 L 173.049,453.663 L 173.285,454.083 L 173.521,454.477 L 173.771,454.818 L 174.02,455.134 L 174.283,455.396 L 174.545,455.646 L 174.808,455.869 L 175.097,456.04 L 175.373,456.171 L 175.648,456.276 L 175.924,456.342 L 176.187,456.355 L 176.187,456.355 L 176.476,456.342 L 176.738,456.276 L 177.027,456.171 L 177.303,456.04 L 177.579,455.869 L 177.841,455.646 L 178.104,455.396 L 178.366,455.134 L 178.616,454.818 L 178.865,454.477 L 179.102,454.083 L 179.338,453.663 L 179.548,453.217 L 179.771,452.731 L 179.981,452.219 L 180.178,451.693 L 180.375,451.129 L 180.546,450.538 L 180.717,449.921 L 180.861,449.291 L 180.979,448.634 L 181.111,447.965 L 181.229,447.269 L 181.334,446.56 L 181.439,445.851 L 181.504,445.102 L 181.57,444.367 L 181.61,443.618 L 181.649,442.883 L 181.688,442.095 L 181.688,441.347"/>
    <path style="fill: #7a7a5a" d="M 184.971 454.897 L 184.236,454.162 L 184.236,428.926 L 184.971,428.177 L 192.665,432.576 L 193.4,433.679 L 193.4,449.396 L 192.665,450.866 L 184.971,454.897z"/>
    <path style="fill: #7a7a5a" d="M 179.141 478.308 L 177.67,475.38 L 176.568,472.085 L 176.935,472.085 L 177.303,472.085 L 178.025,472.085 L 178.406,471.717 L 179.482,470.627 L 180.598,468.802 L 181.688,466.596 L 182.791,464.049 L 184.971,458.18 L 185.719,458.18 L 191.208,465.506 L 191.208,467.332 L 190.472,470.26 L 188.989,473.555 L 187.925,476.483 L 186.428,478.308 L 184.971,480.488 L 183.146,480.869 L 180.598,480.488 L 179.141,478.308z"/>
    <path style="fill: #dbdbce" d="M 169.989 433.679 L 178.773,433.679 L 178.773,449.396 L 169.989,449.396 L 169.989,433.679z"/>
    <path style="fill: none; fill-opacity:0; stroke-width: 0.56; stroke: #494936" d="M 169.989 433.679 L 178.773,433.679 L 178.773,449.396 L 169.989,449.396 L 169.989,433.679"/>
    <path style="fill: none; fill-opacity:0; stroke-width: 1.58; stroke: #ecece7" d="M 181.465 405.738 L 179.968,406 L 178.485,406.368 L 177.014,406.801 L 175.557,407.34 L 174.138,407.957 L 172.747,408.692 L 171.381,409.493 L 170.068,410.347 L 168.781,411.318 L 167.573,412.369 L 166.365,413.485 L 165.236,414.666 L 164.16,415.914 L 163.135,417.227 L 162.164,418.619 L 161.258,420.063 L 160.431,421.56"/>
    <path style="fill: #7a7a5a" d="M 179.141 404.753 L 177.67,407.694 L 176.568,410.99 L 176.935,410.99 L 177.303,410.99 L 177.67,410.99 L 178.406,411.358 L 179.482,412.447 L 180.598,413.918 L 181.688,416.478 L 182.791,418.671 L 184.616,424.514 L 185.719,424.895 L 191.208,417.201 L 191.208,415.743 L 190.472,412.802 L 188.989,409.165 L 187.925,406.604 L 186.428,404.753 L 184.971,402.587 L 183.146,401.851 L 180.598,402.587 L 179.141,404.753z"/>
    <path style="fill: #a5a585" d="M 173.64 428.926 L 173.272,432.576 L 173.272,435.504 L 173.272,439.876 L 173.272,445.01 L 173.272,447.216 L 173.272,449.396 L 173.272,451.247 L 173.64,454.162 L 173.64,457.077 L 169.622,451.588 L 166.681,446.1 L 168.519,435.859 L 170.698,431.105 L 174.02,425.604 L 173.64,428.926z"/>
    <path style="fill: none; fill-opacity:0; stroke-width: 1.58; stroke: #7a7a5a" d="M 156.544 450.696 L 156.859,452.442 L 157.24,454.201 L 157.726,455.908 L 158.251,457.602 L 158.868,459.243 L 159.564,460.845 L 160.352,462.408 L 161.166,463.918 L 162.072,465.375 L 163.057,466.767 L 164.054,468.106 L 165.131,469.38 L 166.273,470.588 L 167.495,471.704 L 168.703,472.754 L 169.989,473.739 L 171.315,474.619 L 172.694,475.446 L 174.099,476.155 L 175.53,476.785 L 176.988,477.324 L 178.485,477.783 L 179.968,478.151 L 181.465,478.413"/>
    <path style="fill: none; fill-opacity:0; stroke-width: 0.56; stroke: #494936" d="M 184.59 400 L 184.025,400.066 L 183.435,400.223 L 182.857,400.46 L 182.292,400.814 L 181.715,401.3 L 181.15,401.851 L 180.625,402.508 L 180.06,403.256 L 179.522,404.11 L 179.023,405.055 L 178.511,406.079 L 178.012,407.208 L 177.539,408.43 L 177.093,409.716 L 176.646,411.069 L 176.213,412.539 L 175.859,414.023 L 175.465,415.638 L 175.097,417.279 L 174.769,418.986 L 174.48,420.759 L 174.191,422.558 L 173.941,424.435 L 173.731,426.339 L 173.508,428.296 L 173.351,430.278 L 173.193,432.287 L 173.075,434.309 L 172.996,436.357 L 172.93,438.406 L 172.904,440.467 L 172.904,442.555 L 172.93,444.616 L 172.996,446.678 L 173.075,448.713 L 173.193,450.748 L 173.351,452.757 L 173.508,454.74 L 173.731,456.683 L 173.941,458.6 L 174.191,460.464 L 174.48,462.276 L 174.769,464.049 L 175.097,465.756 L 175.465,467.397 L 175.859,468.999 L 176.213,470.496 L 176.646,471.953 L 177.093,473.319 L 177.539,474.606 L 178.012,475.827 L 178.511,476.943 L 179.023,477.98 L 179.522,478.912 L 180.06,479.779 L 180.625,480.527 L 181.15,481.184 L 181.715,481.735 L 182.292,482.208 L 182.857,482.563 L 183.435,482.812 L 184.025,482.97 L 184.59,483.022"/>
  </g>
  <image x="820" y="40" width="65.3333" height="49" xlink:href="file:///home/hhv/Downloads/pushbutton.jpeg"/>
  <g>
    <g>
      <line style="fill: none; fill-opacity:0; stroke-width: 2; stroke-dasharray: 4; stroke: #000000" x1="438.154" y1="232" x2="489.272" y2="92.1428"/>
      <polygon style="fill: #000000" points="491.846,85.0986 493.11,96.2073 489.272,92.1428 483.717,92.7744 "/>
      <polygon style="fill: none; fill-opacity:0; stroke-width: 2; stroke: #000000" points="491.846,85.0986 493.11,96.2073 489.272,92.1428 483.717,92.7744 "/>
    </g>
    <text style="fill: #000000;text-anchor:start;font-size:12.8;font-family:sanserif;font-style:normal;font-weight:normal" x="424" y="160">
      <tspan x="424" y="160">DMX</tspan>
    </text>
  </g>
  <image x="100" y="40" width="65.3333" height="49" xlink:href="file:///home/hhv/Downloads/pushbutton.jpeg"/>
  <g>
    <line style="fill: none; fill-opacity:0; stroke-width: 2; stroke-dasharray: 20; stroke: #000000" x1="174.043" y1="558.062" x2="142.664" y2="447.77"/>
    <polygon style="fill: #000000" points="140.612,440.557 148.158,448.807 142.664,447.77 138.539,451.543 "/>
    <polygon style="fill: none; fill-opacity:0; stroke-width: 2; stroke: #000000" points="140.612,440.557 148.158,448.807 142.664,447.77 138.539,451.543 "/>
  </g>
</svg>
