<?xml version="1.0" encoding="UTF-8" standalone="no"?>
<!DOCTYPE svg PUBLIC "-//W3C//DTD SVG 1.0//EN" "http://www.w3.org/TR/2001/PR-SVG-20010719/DTD/svg10.dtd">
<svg width="40cm" height="16cm" viewBox="99 39 788 317" xmlns="http://www.w3.org/2000/svg" xmlns:xlink="http://www.w3.org/1999/xlink">
  <g>
    <g>
      <rect style="fill: #ffffff" x="177" y="60" width="640" height="22"/>
      <rect style="fill: none; fill-opacity:0; stroke-width: 2; stroke: #000000" x="177" y="60" width="640" height="22"/>
    </g>
    <g>
      <g>
        <ellipse style="fill: #ffffff" cx="266.25" cy="69.25" rx="9.25" ry="9.25"/>
        <ellipse style="fill: none; fill-opacity:0; stroke-width: 2; stroke: #000000" cx="266.25" cy="69.25" rx="9.25" ry="9.25"/>
        <ellipse style="fill: #000000" cx="266.25" cy="69.25" rx="1.85" ry="1.85"/>
        <ellipse style="fill: none; fill-opacity:0; stroke-width: 2; stroke: #000000" cx="266.25" cy="69.25" rx="1.85" ry="1.85"/>
      </g>
      <g>
        <ellipse style="fill: #ffffff" cx="206.25" cy="69.25" rx="9.25" ry="9.25"/>
        <ellipse style="fill: none; fill-opacity:0; stroke-width: 2; stroke: #000000" cx="206.25" cy="69.25" rx="9.25" ry="9.25"/>
        <ellipse style="fill: #000000" cx="206.25" cy="69.25" rx="1.85" ry="1.85"/>
        <ellipse style="fill: none; fill-opacity:0; stroke-width: 2; stroke: #000000" cx="206.25" cy="69.25" rx="1.85" ry="1.85"/>
      </g>
      <g>
        <ellipse style="fill: #ffffff" cx="226.25" cy="69.25" rx="9.25" ry="9.25"/>
        <ellipse style="fill: none; fill-opacity:0; stroke-width: 2; stroke: #000000" cx="226.25" cy="69.25" rx="9.25" ry="9.25"/>
        <ellipse style="fill: #000000" cx="226.25" cy="69.25" rx="1.85" ry="1.85"/>
        <ellipse style="fill: none; fill-opacity:0; stroke-width: 2; stroke: #000000" cx="226.25" cy="69.25" rx="1.85" ry="1.85"/>
      </g>
      <g>
        <ellipse style="fill: #ffffff" cx="246.25" cy="69.25" rx="9.25" ry="9.25"/>
        <ellipse style="fill: none; fill-opacity:0; stroke-width: 2; stroke: #000000" cx="246.25" cy="69.25" rx="9.25" ry="9.25"/>
        <ellipse style="fill: #000000" cx="246.25" cy="69.25" rx="1.85" ry="1.85"/>
        <ellipse style="fill: none; fill-opacity:0; stroke-width: 2; stroke: #000000" cx="246.25" cy="69.25" rx="1.85" ry="1.85"/>
      </g>
      <g>
        <ellipse style="fill: #ffffff" cx="286.25" cy="69.25" rx="9.25" ry="9.25"/>
        <ellipse style="fill: none; fill-opacity:0; stroke-width: 2; stroke: #000000" cx="286.25" cy="69.25" rx="9.25" ry="9.25"/>
        <ellipse style="fill: #000000" cx="286.25" cy="69.25" rx="1.85" ry="1.85"/>
        <ellipse style="fill: none; fill-opacity:0; stroke-width: 2; stroke: #000000" cx="286.25" cy="69.25" rx="1.85" ry="1.85"/>
      </g>
      <g>
        <ellipse style="fill: #ffffff" cx="306.25" cy="69.25" rx="9.25" ry="9.25"/>
        <ellipse style="fill: none; fill-opacity:0; stroke-width: 2; stroke: #000000" cx="306.25" cy="69.25" rx="9.25" ry="9.25"/>
        <ellipse style="fill: #000000" cx="306.25" cy="69.25" rx="1.85" ry="1.85"/>
        <ellipse style="fill: none; fill-opacity:0; stroke-width: 2; stroke: #000000" cx="306.25" cy="69.25" rx="1.85" ry="1.85"/>
      </g>
      <g>
        <ellipse style="fill: #ffffff" cx="326.25" cy="69.25" rx="9.25" ry="9.25"/>
        <ellipse style="fill: none; fill-opacity:0; stroke-width: 2; stroke: #000000" cx="326.25" cy="69.25" rx="9.25" ry="9.25"/>
        <ellipse style="fill: #000000" cx="326.25" cy="69.25" rx="1.85" ry="1.85"/>
        <ellipse style="fill: none; fill-opacity:0; stroke-width: 2; stroke: #000000" cx="326.25" cy="69.25" rx="1.85" ry="1.85"/>
      </g>
      <g>
        <ellipse style="fill: #ffffff" cx="186.25" cy="69.25" rx="9.25" ry="9.25"/>
        <ellipse style="fill: none; fill-opacity:0; stroke-width: 2; stroke: #000000" cx="186.25" cy="69.25" rx="9.25" ry="9.25"/>
        <ellipse style="fill: #000000" cx="186.25" cy="69.25" rx="1.85" ry="1.85"/>
        <ellipse style="fill: none; fill-opacity:0; stroke-width: 2; stroke: #000000" cx="186.25" cy="69.25" rx="1.85" ry="1.85"/>
      </g>
    </g>
    <g>
      <g>
        <ellipse style="fill: #ffffff" cx="746.25" cy="69.25" rx="9.25" ry="9.25"/>
        <ellipse style="fill: none; fill-opacity:0; stroke-width: 2; stroke: #000000" cx="746.25" cy="69.25" rx="9.25" ry="9.25"/>
        <ellipse style="fill: #000000" cx="746.25" cy="69.25" rx="1.85" ry="1.85"/>
        <ellipse style="fill: none; fill-opacity:0; stroke-width: 2; stroke: #000000" cx="746.25" cy="69.25" rx="1.85" ry="1.85"/>
      </g>
      <g>
        <ellipse style="fill: #ffffff" cx="686.25" cy="69.25" rx="9.25" ry="9.25"/>
        <ellipse style="fill: none; fill-opacity:0; stroke-width: 2; stroke: #000000" cx="686.25" cy="69.25" rx="9.25" ry="9.25"/>
        <ellipse style="fill: #000000" cx="686.25" cy="69.25" rx="1.85" ry="1.85"/>
        <ellipse style="fill: none; fill-opacity:0; stroke-width: 2; stroke: #000000" cx="686.25" cy="69.25" rx="1.85" ry="1.85"/>
      </g>
      <g>
        <ellipse style="fill: #ffffff" cx="706.25" cy="69.25" rx="9.25" ry="9.25"/>
        <ellipse style="fill: none; fill-opacity:0; stroke-width: 2; stroke: #000000" cx="706.25" cy="69.25" rx="9.25" ry="9.25"/>
        <ellipse style="fill: #000000" cx="706.25" cy="69.25" rx="1.85" ry="1.85"/>
        <ellipse style="fill: none; fill-opacity:0; stroke-width: 2; stroke: #000000" cx="706.25" cy="69.25" rx="1.85" ry="1.85"/>
      </g>
      <g>
        <ellipse style="fill: #ffffff" cx="726.25" cy="69.25" rx="9.25" ry="9.25"/>
        <ellipse style="fill: none; fill-opacity:0; stroke-width: 2; stroke: #000000" cx="726.25" cy="69.25" rx="9.25" ry="9.25"/>
        <ellipse style="fill: #000000" cx="726.25" cy="69.25" rx="1.85" ry="1.85"/>
        <ellipse style="fill: none; fill-opacity:0; stroke-width: 2; stroke: #000000" cx="726.25" cy="69.25" rx="1.85" ry="1.85"/>
      </g>
      <g>
        <ellipse style="fill: #ffffff" cx="766.25" cy="69.25" rx="9.25" ry="9.25"/>
        <ellipse style="fill: none; fill-opacity:0; stroke-width: 2; stroke: #000000" cx="766.25" cy="69.25" rx="9.25" ry="9.25"/>
        <ellipse style="fill: #000000" cx="766.25" cy="69.25" rx="1.85" ry="1.85"/>
        <ellipse style="fill: none; fill-opacity:0; stroke-width: 2; stroke: #000000" cx="766.25" cy="69.25" rx="1.85" ry="1.85"/>
      </g>
      <g>
        <ellipse style="fill: #ffffff" cx="786.25" cy="69.25" rx="9.25" ry="9.25"/>
        <ellipse style="fill: none; fill-opacity:0; stroke-width: 2; stroke: #000000" cx="786.25" cy="69.25" rx="9.25" ry="9.25"/>
        <ellipse style="fill: #000000" cx="786.25" cy="69.25" rx="1.85" ry="1.85"/>
        <ellipse style="fill: none; fill-opacity:0; stroke-width: 2; stroke: #000000" cx="786.25" cy="69.25" rx="1.85" ry="1.85"/>
      </g>
      <g>
        <ellipse style="fill: #ffffff" cx="806.25" cy="69.25" rx="9.25" ry="9.25"/>
        <ellipse style="fill: none; fill-opacity:0; stroke-width: 2; stroke: #000000" cx="806.25" cy="69.25" rx="9.25" ry="9.25"/>
        <ellipse style="fill: #000000" cx="806.25" cy="69.25" rx="1.85" ry="1.85"/>
        <ellipse style="fill: none; fill-opacity:0; stroke-width: 2; stroke: #000000" cx="806.25" cy="69.25" rx="1.85" ry="1.85"/>
      </g>
      <g>
        <ellipse style="fill: #ffffff" cx="666.25" cy="69.25" rx="9.25" ry="9.25"/>
        <ellipse style="fill: none; fill-opacity:0; stroke-width: 2; stroke: #000000" cx="666.25" cy="69.25" rx="9.25" ry="9.25"/>
        <ellipse style="fill: #000000" cx="666.25" cy="69.25" rx="1.85" ry="1.85"/>
        <ellipse style="fill: none; fill-opacity:0; stroke-width: 2; stroke: #000000" cx="666.25" cy="69.25" rx="1.85" ry="1.85"/>
      </g>
    </g>
    <g>
      <g>
        <ellipse style="fill: #ffffff" cx="586.25" cy="69.25" rx="9.25" ry="9.25"/>
        <ellipse style="fill: none; fill-opacity:0; stroke-width: 2; stroke: #000000" cx="586.25" cy="69.25" rx="9.25" ry="9.25"/>
        <ellipse style="fill: #000000" cx="586.25" cy="69.25" rx="1.85" ry="1.85"/>
        <ellipse style="fill: none; fill-opacity:0; stroke-width: 2; stroke: #000000" cx="586.25" cy="69.25" rx="1.85" ry="1.85"/>
      </g>
      <g>
        <ellipse style="fill: #ffffff" cx="526.25" cy="69.25" rx="9.25" ry="9.25"/>
        <ellipse style="fill: none; fill-opacity:0; stroke-width: 2; stroke: #000000" cx="526.25" cy="69.25" rx="9.25" ry="9.25"/>
        <ellipse style="fill: #000000" cx="526.25" cy="69.25" rx="1.85" ry="1.85"/>
        <ellipse style="fill: none; fill-opacity:0; stroke-width: 2; stroke: #000000" cx="526.25" cy="69.25" rx="1.85" ry="1.85"/>
      </g>
      <g>
        <ellipse style="fill: #ffffff" cx="546.25" cy="69.25" rx="9.25" ry="9.25"/>
        <ellipse style="fill: none; fill-opacity:0; stroke-width: 2; stroke: #000000" cx="546.25" cy="69.25" rx="9.25" ry="9.25"/>
        <ellipse style="fill: #000000" cx="546.25" cy="69.25" rx="1.85" ry="1.85"/>
        <ellipse style="fill: none; fill-opacity:0; stroke-width: 2; stroke: #000000" cx="546.25" cy="69.25" rx="1.85" ry="1.85"/>
      </g>
      <g>
        <ellipse style="fill: #ffffff" cx="566.25" cy="69.25" rx="9.25" ry="9.25"/>
        <ellipse style="fill: none; fill-opacity:0; stroke-width: 2; stroke: #000000" cx="566.25" cy="69.25" rx="9.25" ry="9.25"/>
        <ellipse style="fill: #000000" cx="566.25" cy="69.25" rx="1.85" ry="1.85"/>
        <ellipse style="fill: none; fill-opacity:0; stroke-width: 2; stroke: #000000" cx="566.25" cy="69.25" rx="1.85" ry="1.85"/>
      </g>
      <g>
        <ellipse style="fill: #ffffff" cx="606.25" cy="69.25" rx="9.25" ry="9.25"/>
        <ellipse style="fill: none; fill-opacity:0; stroke-width: 2; stroke: #000000" cx="606.25" cy="69.25" rx="9.25" ry="9.25"/>
        <ellipse style="fill: #000000" cx="606.25" cy="69.25" rx="1.85" ry="1.85"/>
        <ellipse style="fill: none; fill-opacity:0; stroke-width: 2; stroke: #000000" cx="606.25" cy="69.25" rx="1.85" ry="1.85"/>
      </g>
      <g>
        <ellipse style="fill: #ffffff" cx="626.25" cy="69.25" rx="9.25" ry="9.25"/>
        <ellipse style="fill: none; fill-opacity:0; stroke-width: 2; stroke: #000000" cx="626.25" cy="69.25" rx="9.25" ry="9.25"/>
        <ellipse style="fill: #000000" cx="626.25" cy="69.25" rx="1.85" ry="1.85"/>
        <ellipse style="fill: none; fill-opacity:0; stroke-width: 2; stroke: #000000" cx="626.25" cy="69.25" rx="1.85" ry="1.85"/>
      </g>
      <g>
        <ellipse style="fill: #ffffff" cx="646.25" cy="69.25" rx="9.25" ry="9.25"/>
        <ellipse style="fill: none; fill-opacity:0; stroke-width: 2; stroke: #000000" cx="646.25" cy="69.25" rx="9.25" ry="9.25"/>
        <ellipse style="fill: #000000" cx="646.25" cy="69.25" rx="1.85" ry="1.85"/>
        <ellipse style="fill: none; fill-opacity:0; stroke-width: 2; stroke: #000000" cx="646.25" cy="69.25" rx="1.85" ry="1.85"/>
      </g>
      <g>
        <ellipse style="fill: #ffffff" cx="506.25" cy="69.25" rx="9.25" ry="9.25"/>
        <ellipse style="fill: none; fill-opacity:0; stroke-width: 2; stroke: #000000" cx="506.25" cy="69.25" rx="9.25" ry="9.25"/>
        <ellipse style="fill: #000000" cx="506.25" cy="69.25" rx="1.85" ry="1.85"/>
        <ellipse style="fill: none; fill-opacity:0; stroke-width: 2; stroke: #000000" cx="506.25" cy="69.25" rx="1.85" ry="1.85"/>
      </g>
    </g>
    <g>
      <g>
        <ellipse style="fill: #ffffff" cx="426.25" cy="69.25" rx="9.25" ry="9.25"/>
        <ellipse style="fill: none; fill-opacity:0; stroke-width: 2; stroke: #000000" cx="426.25" cy="69.25" rx="9.25" ry="9.25"/>
        <ellipse style="fill: #000000" cx="426.25" cy="69.25" rx="1.85" ry="1.85"/>
        <ellipse style="fill: none; fill-opacity:0; stroke-width: 2; stroke: #000000" cx="426.25" cy="69.25" rx="1.85" ry="1.85"/>
      </g>
      <g>
        <ellipse style="fill: #ffffff" cx="366.25" cy="69.25" rx="9.25" ry="9.25"/>
        <ellipse style="fill: none; fill-opacity:0; stroke-width: 2; stroke: #000000" cx="366.25" cy="69.25" rx="9.25" ry="9.25"/>
        <ellipse style="fill: #000000" cx="366.25" cy="69.25" rx="1.85" ry="1.85"/>
        <ellipse style="fill: none; fill-opacity:0; stroke-width: 2; stroke: #000000" cx="366.25" cy="69.25" rx="1.85" ry="1.85"/>
      </g>
      <g>
        <ellipse style="fill: #ffffff" cx="386.25" cy="69.25" rx="9.25" ry="9.25"/>
        <ellipse style="fill: none; fill-opacity:0; stroke-width: 2; stroke: #000000" cx="386.25" cy="69.25" rx="9.25" ry="9.25"/>
        <ellipse style="fill: #000000" cx="386.25" cy="69.25" rx="1.85" ry="1.85"/>
        <ellipse style="fill: none; fill-opacity:0; stroke-width: 2; stroke: #000000" cx="386.25" cy="69.25" rx="1.85" ry="1.85"/>
      </g>
      <g>
        <ellipse style="fill: #ffffff" cx="406.25" cy="69.25" rx="9.25" ry="9.25"/>
        <ellipse style="fill: none; fill-opacity:0; stroke-width: 2; stroke: #000000" cx="406.25" cy="69.25" rx="9.25" ry="9.25"/>
        <ellipse style="fill: #000000" cx="406.25" cy="69.25" rx="1.85" ry="1.85"/>
        <ellipse style="fill: none; fill-opacity:0; stroke-width: 2; stroke: #000000" cx="406.25" cy="69.25" rx="1.85" ry="1.85"/>
      </g>
      <g>
        <ellipse style="fill: #ffffff" cx="446.25" cy="69.25" rx="9.25" ry="9.25"/>
        <ellipse style="fill: none; fill-opacity:0; stroke-width: 2; stroke: #000000" cx="446.25" cy="69.25" rx="9.25" ry="9.25"/>
        <ellipse style="fill: #000000" cx="446.25" cy="69.25" rx="1.85" ry="1.85"/>
        <ellipse style="fill: none; fill-opacity:0; stroke-width: 2; stroke: #000000" cx="446.25" cy="69.25" rx="1.85" ry="1.85"/>
      </g>
      <g>
        <ellipse style="fill: #ffffff" cx="466.25" cy="69.25" rx="9.25" ry="9.25"/>
        <ellipse style="fill: none; fill-opacity:0; stroke-width: 2; stroke: #000000" cx="466.25" cy="69.25" rx="9.25" ry="9.25"/>
        <ellipse style="fill: #000000" cx="466.25" cy="69.25" rx="1.85" ry="1.85"/>
        <ellipse style="fill: none; fill-opacity:0; stroke-width: 2; stroke: #000000" cx="466.25" cy="69.25" rx="1.85" ry="1.85"/>
      </g>
      <g>
        <ellipse style="fill: #ffffff" cx="486.25" cy="69.25" rx="9.25" ry="9.25"/>
        <ellipse style="fill: none; fill-opacity:0; stroke-width: 2; stroke: #000000" cx="486.25" cy="69.25" rx="9.25" ry="9.25"/>
        <ellipse style="fill: #000000" cx="486.25" cy="69.25" rx="1.85" ry="1.85"/>
        <ellipse style="fill: none; fill-opacity:0; stroke-width: 2; stroke: #000000" cx="486.25" cy="69.25" rx="1.85" ry="1.85"/>
      </g>
      <g>
        <ellipse style="fill: #ffffff" cx="346.25" cy="69.25" rx="9.25" ry="9.25"/>
        <ellipse style="fill: none; fill-opacity:0; stroke-width: 2; stroke: #000000" cx="346.25" cy="69.25" rx="9.25" ry="9.25"/>
        <ellipse style="fill: #000000" cx="346.25" cy="69.25" rx="1.85" ry="1.85"/>
        <ellipse style="fill: none; fill-opacity:0; stroke-width: 2; stroke: #000000" cx="346.25" cy="69.25" rx="1.85" ry="1.85"/>
      </g>
    </g>
  </g>
  <text style="fill: #000000;text-anchor:start;font-size:12.8;font-family:sanserif;font-style:normal;font-weight:normal" x="700" y="340">
    <tspan x="700" y="340">Erlang gameserver</tspan>
  </text>
  <g>
    <g>
      <rect style="fill: #d9d9cd" x="660" y="259" width="160" height="40"/>
      <rect style="fill: none; fill-opacity:0; stroke-width: 2; stroke: #000000" x="660" y="259" width="160" height="40"/>
      <rect style="fill: none; fill-opacity:0; stroke-width: 0.2; stroke: #000000" x="660" y="259" width="160" height="40"/>
      <line style="fill: none; fill-opacity:0; stroke-width: 0.2; stroke: #000000" x1="688" y1="275" x2="684" y2="279"/>
      <line style="fill: none; fill-opacity:0; stroke-width: 0.2; stroke: #000000" x1="684" y1="279" x2="688" y2="283"/>
      <line style="fill: none; fill-opacity:0; stroke-width: 0.2; stroke: #000000" x1="704" y1="275" x2="700" y2="279"/>
      <line style="fill: none; fill-opacity:0; stroke-width: 0.2; stroke: #000000" x1="700" y1="279" x2="704" y2="283"/>
      <line style="fill: none; fill-opacity:0; stroke-width: 0.2; stroke: #000000" x1="720" y1="275" x2="716" y2="279"/>
      <line style="fill: none; fill-opacity:0; stroke-width: 0.2; stroke: #000000" x1="716" y1="279" x2="720" y2="283"/>
      <line style="fill: none; fill-opacity:0; stroke-width: 0.2; stroke: #000000" x1="736" y1="275" x2="732" y2="279"/>
      <line style="fill: none; fill-opacity:0; stroke-width: 0.2; stroke: #000000" x1="732" y1="279" x2="736" y2="283"/>
      <line style="fill: none; fill-opacity:0; stroke-width: 0.2; stroke: #000000" x1="752" y1="275" x2="748" y2="279"/>
      <line style="fill: none; fill-opacity:0; stroke-width: 0.2; stroke: #000000" x1="748" y1="279" x2="752" y2="283"/>
      <line style="fill: none; fill-opacity:0; stroke-width: 0.2; stroke: #000000" x1="768" y1="275" x2="764" y2="279"/>
      <line style="fill: none; fill-opacity:0; stroke-width: 0.2; stroke: #000000" x1="764" y1="279" x2="768" y2="283"/>
      <line style="fill: none; fill-opacity:0; stroke-width: 0.2; stroke: #000000" x1="784" y1="275" x2="780" y2="279"/>
      <line style="fill: none; fill-opacity:0; stroke-width: 0.2; stroke: #000000" x1="780" y1="279" x2="784" y2="283"/>
      <line style="fill: none; fill-opacity:0; stroke-width: 0.2; stroke: #000000" x1="800" y1="275" x2="796" y2="279"/>
      <line style="fill: none; fill-opacity:0; stroke-width: 0.2; stroke: #000000" x1="796" y1="279" x2="800" y2="283"/>
      <line style="fill: none; fill-opacity:0; stroke-width: 0.2; stroke: #000000" x1="808" y1="287" x2="804" y2="291"/>
      <line style="fill: none; fill-opacity:0; stroke-width: 0.2; stroke: #000000" x1="804" y1="291" x2="808" y2="295"/>
      <line style="fill: none; fill-opacity:0; stroke-width: 0.2; stroke: #000000" x1="792" y1="287" x2="788" y2="291"/>
      <line style="fill: none; fill-opacity:0; stroke-width: 0.2; stroke: #000000" x1="788" y1="291" x2="792" y2="295"/>
      <line style="fill: none; fill-opacity:0; stroke-width: 0.2; stroke: #000000" x1="776" y1="287" x2="772" y2="291"/>
      <line style="fill: none; fill-opacity:0; stroke-width: 0.2; stroke: #000000" x1="772" y1="291" x2="776" y2="295"/>
      <line style="fill: none; fill-opacity:0; stroke-width: 0.2; stroke: #000000" x1="760" y1="287" x2="756" y2="291"/>
      <line style="fill: none; fill-opacity:0; stroke-width: 0.2; stroke: #000000" x1="756" y1="291" x2="760" y2="295"/>
      <line style="fill: none; fill-opacity:0; stroke-width: 0.2; stroke: #000000" x1="744" y1="287" x2="740" y2="291"/>
      <line style="fill: none; fill-opacity:0; stroke-width: 0.2; stroke: #000000" x1="740" y1="291" x2="744" y2="295"/>
      <line style="fill: none; fill-opacity:0; stroke-width: 0.2; stroke: #000000" x1="728" y1="287" x2="724" y2="291"/>
      <line style="fill: none; fill-opacity:0; stroke-width: 0.2; stroke: #000000" x1="724" y1="291" x2="728" y2="295"/>
      <line style="fill: none; fill-opacity:0; stroke-width: 0.2; stroke: #000000" x1="712" y1="287" x2="708" y2="291"/>
      <line style="fill: none; fill-opacity:0; stroke-width: 0.2; stroke: #000000" x1="708" y1="291" x2="712" y2="295"/>
      <rect style="fill: #d9d9cd" x="688" y="291" width="16" height="4"/>
      <rect style="fill: none; fill-opacity:0; stroke-width: 2; stroke: #000000" x="688" y="291" width="16" height="4"/>
      <rect style="fill: none; fill-opacity:0; stroke-width: 0.2; stroke: #000000" x="688" y="291" width="16" height="4"/>
      <polygon style="fill: #cdcdcd" points="672,279 680,287 672,295 664,287 "/>
      <polygon style="fill: none; fill-opacity:0; stroke-width: 2; stroke: #000000" points="672,279 680,287 672,295 664,287 "/>
      <polygon style="fill: none; fill-opacity:0; stroke-width: 0.2; stroke: #000000" points="672,279 680,287 672,295 664,287 "/>
      <rect style="fill: #d9d9cd" x="660" y="267" width="160" height="4"/>
      <rect style="fill: none; fill-opacity:0; stroke-width: 2; stroke: #000000" x="660" y="267" width="160" height="4"/>
      <rect style="fill: none; fill-opacity:0; stroke-width: 0.2; stroke: #000000" x="660" y="267" width="160" height="4"/>
      <rect style="fill: #cdcdcd" x="680" y="267" width="36" height="4"/>
      <rect style="fill: none; fill-opacity:0; stroke-width: 2; stroke: #000000" x="680" y="267" width="36" height="4"/>
      <rect style="fill: none; fill-opacity:0; stroke-width: 0.2; stroke: #000000" x="680" y="267" width="36" height="4"/>
    </g>
    <text style="fill: #000000;text-anchor:start;font-size:12.8;font-family:sanserif;font-style:normal;font-weight:normal" x="700" y="320">
      <tspan x="700" y="320">ser2net server</tspan>
    </text>
  </g>
  <g>
    <g>
      <path style="fill: #0096d4" d="M 400 299.234 L 400,332.049 L 430.408,332.049 L 430.408,299.234 L 400,299.234z"/>
      <path style="fill: none; fill-opacity:0; stroke-width: 0.02; stroke: #aae6ff" d="M 400 299.234 L 400,332.049 L 430.408,332.049 L 430.408,299.234 L 400,299.234"/>
      <path style="fill: #000000" d="M 403.86 324.828 L 403.86,307.576 L 402.213,307.576 L 404.966,303.136 L 407.733,307.576 L 406.073,307.576 L 406.073,324.828 L 407.733,324.828 L 404.966,328.715 L 402.213,324.828 L 403.86,324.828z"/>
      <path style="fill: #000000" d="M 410.528 324.828 L 410.528,307.576 L 408.826,307.576 L 411.621,303.136 L 414.36,307.576 L 412.7,307.576 L 412.7,324.828 L 414.36,324.828 L 411.621,328.715 L 408.826,324.828 L 410.528,324.828z"/>
      <path style="fill: #000000" d="M 417.127 324.828 L 417.127,307.576 L 415.494,307.576 L 418.261,303.136 L 421,307.576 L 419.354,307.576 L 419.354,324.828 L 421,324.828 L 418.261,328.715 L 415.494,324.828 L 417.127,324.828z"/>
      <path style="fill: #000000" d="M 423.795 324.828 L 423.795,307.576 L 422.107,307.576 L 424.888,303.136 L 427.668,307.576 L 425.981,307.576 L 425.981,324.828 L 427.668,324.828 L 424.888,328.715 L 422.107,324.828 L 423.795,324.828z"/>
      <path style="fill: #ffffff" d="M 404.427 325.381 L 404.427,308.143 L 402.767,308.143 L 405.534,303.689 L 408.301,308.143 L 406.613,308.143 L 406.613,325.381 L 408.301,325.381 L 405.534,329.268 L 402.767,325.381 L 404.427,325.381z"/>
      <path style="fill: #ffffff" d="M 411.067 325.381 L 411.067,308.143 L 409.393,308.143 L 412.16,303.689 L 414.913,308.143 L 413.281,308.143 L 413.281,325.381 L 414.913,325.381 L 412.16,329.268 L 409.393,325.381 L 411.067,325.381z"/>
      <path style="fill: #ffffff" d="M 417.694 325.381 L 417.694,308.143 L 416.048,308.143 L 418.828,303.689 L 421.581,308.143 L 419.894,308.143 L 419.894,325.381 L 421.581,325.381 L 418.828,329.268 L 416.048,325.381 L 417.694,325.381z"/>
      <path style="fill: #ffffff" d="M 424.334 325.381 L 424.334,308.143 L 422.66,308.143 L 425.427,303.689 L 428.194,308.143 L 426.562,308.143 L 426.562,325.381 L 428.194,325.381 L 425.427,329.268 L 422.66,325.381 L 424.334,325.381z"/>
      <path style="fill: #0096d4" d="M 430.408 299.234 L 430.408,332.049 L 460.843,332.049 L 460.843,299.234 L 430.408,299.234z"/>
      <path style="fill: none; fill-opacity:0; stroke-width: 0.02; stroke: #aae6ff" d="M 430.408 299.234 L 430.408,332.049 L 460.843,332.049 L 460.843,299.234 L 430.408,299.234"/>
      <path style="fill: #005a80" d="M 460.843 299.234 L 468.59,292.027 L 468.59,324.26 L 460.843,331.482 L 460.843,299.234z"/>
      <path style="fill: none; fill-opacity:0; stroke-width: 0.02; stroke: #aae6ff" d="M 460.843 299.234 L 468.59,292.027 L 468.59,324.26 L 460.843,331.482 L 460.843,299.234"/>
      <path style="fill: #000000" d="M 434.281 324.828 L 434.281,307.576 L 432.635,307.576 L 435.402,303.136 L 438.155,307.576 L 436.495,307.576 L 436.495,324.828 L 438.155,324.828 L 435.402,328.715 L 432.635,324.828 L 434.281,324.828z"/>
      <path style="fill: #000000" d="M 440.935 324.828 L 440.935,307.576 L 439.248,307.576 L 442.042,303.136 L 444.809,307.576 L 443.135,307.576 L 443.135,324.828 L 444.809,324.828 L 442.042,328.715 L 439.248,324.828 L 440.935,324.828z"/>
      <path style="fill: #000000" d="M 447.548 324.828 L 447.548,307.576 L 445.888,307.576 L 448.655,303.136 L 451.422,307.576 L 449.789,307.576 L 449.789,324.828 L 451.422,324.828 L 448.655,328.715 L 445.888,324.828 L 447.548,324.828z"/>
      <path style="fill: #000000" d="M 454.189 324.828 L 454.189,307.576 L 452.542,307.576 L 455.323,303.136 L 458.076,307.576 L 456.402,307.576 L 456.402,324.828 L 458.076,324.828 L 455.323,328.715 L 452.542,324.828 L 454.189,324.828z"/>
      <path style="fill: #ffffff" d="M 434.835 325.381 L 434.835,308.143 L 433.174,308.143 L 435.969,303.689 L 438.722,308.143 L 437.048,308.143 L 437.048,325.381 L 438.722,325.381 L 435.969,329.268 L 433.174,325.381 L 434.835,325.381z"/>
      <path style="fill: #ffffff" d="M 441.489 325.381 L 441.489,308.143 L 439.815,308.143 L 442.568,303.689 L 445.321,308.143 L 443.702,308.143 L 443.702,325.381 L 445.321,325.381 L 442.568,329.268 L 439.815,325.381 L 441.489,325.381z"/>
      <path style="fill: #ffffff" d="M 448.102 325.381 L 448.102,308.143 L 446.455,308.143 L 449.236,303.689 L 452.003,308.143 L 450.315,308.143 L 450.315,325.381 L 452.003,325.381 L 449.236,329.268 L 446.455,325.381 L 448.102,325.381z"/>
      <path style="fill: #ffffff" d="M 454.756 325.381 L 454.756,308.143 L 453.096,308.143 L 455.849,303.689 L 458.616,308.143 L 456.955,308.143 L 456.955,325.381 L 458.616,325.381 L 455.849,329.268 L 453.096,325.381 L 454.756,325.381z"/>
      <path style="fill: #005a80" d="M 400 299.234 L 407.733,292.027 L 468.59,292.027 L 460.843,299.234 L 400,299.234z"/>
      <path style="fill: none; fill-opacity:0; stroke-width: 0.02; stroke: #003c55" d="M 400 299.234 L 407.733,292.027 L 468.59,292.027 L 460.843,299.234 L 400,299.234"/>
      <path style="fill: #0096d4" d="M 400 239.208 L 400,299.801 L 460.843,299.801 L 460.843,239.208 L 400,239.208z"/>
      <path style="fill: none; fill-opacity:0; stroke-width: 0.02; stroke: #aae6ff" d="M 400 239.208 L 400,299.801 L 460.843,299.801 L 460.843,239.208 L 400,239.208"/>
      <path style="fill: #00b4ff" d="M 400 239.208 L 407.733,232 L 468.59,232 L 460.843,239.208 L 400,239.208z"/>
      <path style="fill: none; fill-opacity:0; stroke-width: 0.02; stroke: #aae6ff" d="M 400 239.208 L 407.733,232 L 468.59,232 L 460.843,239.208 L 400,239.208"/>
      <path style="fill: #005a80" d="M 460.843 239.208 L 468.59,232 L 468.59,292.027 L 460.843,299.234 L 460.843,239.208z"/>
      <path style="fill: none; fill-opacity:0; stroke-width: 0.02; stroke: #aae6ff" d="M 460.843 239.208 L 468.59,232 L 468.59,292.027 L 460.843,299.234 L 460.843,239.208"/>
      <path style="fill: #000000" d="M 423.795 266.447 L 407.733,266.447 L 407.733,264.248 L 402.767,268.674 L 407.733,273.669 L 407.733,271.469 L 423.795,271.469 L 423.795,266.447z"/>
      <path style="fill: #000000" d="M 427.101 263.127 L 415.494,251.451 L 417.127,249.777 L 410.528,249.777 L 410.528,256.445 L 412.16,254.785 L 423.795,266.447 L 427.101,263.127z"/>
      <path style="fill: #000000" d="M 432.054 263.127 L 432.054,246.457 L 434.281,246.457 L 429.868,241.988 L 424.888,246.457 L 427.101,246.457 L 427.101,263.127 L 432.054,263.127z"/>
      <path style="fill: #000000" d="M 435.402 266.447 L 447.022,254.785 L 448.655,256.445 L 448.655,249.777 L 442.042,249.777 L 443.702,251.451 L 432.054,263.127 L 435.402,266.447z"/>
      <path style="fill: #000000" d="M 435.402 271.469 L 452.003,271.469 L 452.003,273.669 L 456.402,268.674 L 452.003,264.248 L 452.003,266.447 L 435.402,266.447 L 435.402,271.469z"/>
      <path style="fill: #000000" d="M 432.054 274.803 L 443.702,286.465 L 442.042,288.125 L 448.655,287.572 L 448.655,281.457 L 447.022,283.145 L 435.402,271.469 L 432.054,274.803z"/>
      <path style="fill: #000000" d="M 427.101 274.803 L 427.101,291.487 L 424.888,291.487 L 429.868,295.914 L 434.281,291.487 L 432.054,291.487 L 432.054,274.803 L 427.101,274.803z"/>
      <path style="fill: #000000" d="M 423.795 271.469 L 412.16,283.145 L 410.528,281.457 L 410.528,288.125 L 417.127,288.125 L 415.494,286.465 L 427.101,274.803 L 423.795,271.469z"/>
      <path style="fill: #ffffff" d="M 424.334 267.014 L 408.301,267.014 L 408.301,264.787 L 403.32,269.242 L 408.301,274.236 L 408.301,272.009 L 424.334,272.009 L 424.334,267.014z"/>
      <path style="fill: #ffffff" d="M 427.668 263.667 L 416.048,252.018 L 417.694,250.33 L 411.067,250.33 L 411.067,257.012 L 412.7,255.324 L 424.334,267.014 L 427.668,263.667z"/>
      <path style="fill: #ffffff" d="M 432.635 263.667 L 432.635,246.982 L 434.835,246.982 L 430.408,242.556 L 425.427,246.982 L 427.668,246.982 L 427.668,263.667 L 432.635,263.667z"/>
      <path style="fill: #ffffff" d="M 435.969 267.014 L 447.548,255.324 L 449.236,257.012 L 449.236,250.33 L 442.568,250.33 L 444.256,252.018 L 432.635,263.667 L 435.969,267.014z"/>
      <path style="fill: #ffffff" d="M 435.969 272.009 L 452.542,272.009 L 452.542,274.236 L 456.955,269.242 L 452.542,264.787 L 452.542,267.014 L 435.969,267.014 L 435.969,272.009z"/>
      <path style="fill: #ffffff" d="M 432.635 275.356 L 444.256,287.005 L 442.568,288.693 L 449.236,288.125 L 449.236,282.011 L 447.548,283.698 L 435.969,272.009 L 432.635,275.356z"/>
      <path style="fill: #ffffff" d="M 427.668 275.356 L 427.668,292.027 L 425.427,292.027 L 430.408,296.467 L 434.835,292.027 L 432.635,292.027 L 432.635,275.356 L 427.668,275.356z"/>
      <path style="fill: #ffffff" d="M 424.334 272.009 L 412.7,283.698 L 411.067,282.011 L 411.067,288.693 L 417.694,288.693 L 416.048,287.005 L 427.668,275.356 L 424.334,272.009z"/>
      <path style="fill: #000000" d="M 438.694 269.491 L 438.68,269.048 L 438.639,268.578 L 438.57,268.107 L 438.514,267.665 L 438.39,267.194 L 438.265,266.752 L 438.113,266.323 L 437.947,265.894 L 437.754,265.465 L 437.532,265.05 L 437.311,264.649 L 437.048,264.261 L 436.799,263.874 L 436.481,263.528 L 436.176,263.182 L 435.858,262.864 L 435.512,262.532 L 435.153,262.255 L 434.765,261.965 L 434.406,261.716 L 434.004,261.481 L 433.576,261.259 L 433.174,261.066 L 432.732,260.9 L 432.317,260.761 L 431.846,260.623 L 431.417,260.512 L 430.947,260.443 L 430.491,260.374 L 430.034,260.36 L 429.564,260.332 L 429.564,260.332 L 429.107,260.36 L 428.651,260.374 L 428.18,260.443 L 427.724,260.512 L 427.295,260.623 L 426.825,260.761 L 426.423,260.9 L 425.967,261.066 L 425.566,261.259 L 425.151,261.481 L 424.736,261.716 L 424.376,261.965 L 424.002,262.255 L 423.643,262.532 L 423.297,262.864 L 422.979,263.182 L 422.647,263.528 L 422.342,263.874 L 422.093,264.261 L 421.83,264.649 L 421.609,265.05 L 421.388,265.465 L 421.194,265.894 L 421.028,266.323 L 420.89,266.752 L 420.751,267.194 L 420.641,267.665 L 420.571,268.107 L 420.502,268.578 L 420.461,269.048 L 420.447,269.491 L 420.447,269.491 L 420.461,269.961 L 420.502,270.431 L 420.571,270.874 L 420.641,271.344 L 420.751,271.787 L 420.89,272.23 L 421.028,272.673 L 421.194,273.115 L 421.388,273.544 L 421.609,273.931 L 421.83,274.333 L 422.093,274.72 L 422.342,275.107 L 422.647,275.453 L 422.979,275.799 L 423.297,276.131 L 423.643,276.449 L 424.002,276.726 L 424.376,277.017 L 424.736,277.266 L 425.151,277.501 L 425.566,277.736 L 425.967,277.916 L 426.423,278.082 L 426.825,278.234 L 427.295,278.358 L 427.724,278.469 L 428.18,278.538 L 428.651,278.607 L 429.107,278.649 L 429.564,278.649 L 429.564,278.649 L 430.034,278.649 L 430.491,278.607 L 430.947,278.538 L 431.417,278.469 L 431.846,278.358 L 432.317,278.234 L 432.732,278.082 L 433.174,277.916 L 433.576,277.736 L 434.004,277.501 L 434.406,277.266 L 434.765,277.017 L 435.153,276.726 L 435.512,276.449 L 435.858,276.131 L 436.176,275.799 L 436.481,275.453 L 436.799,275.107 L 437.048,274.72 L 437.311,274.333 L 437.532,273.931 L 437.754,273.544 L 437.947,273.115 L 438.113,272.673 L 438.265,272.23 L 438.39,271.787 L 438.514,271.344 L 438.57,270.874 L 438.639,270.431 L 438.68,269.961 L 438.694,269.491z"/>
      <path style="fill: #ffffff" d="M 439.787 270.597 L 439.773,270.141 L 439.76,269.671 L 439.677,269.214 L 439.594,268.744 L 439.483,268.287 L 439.372,267.844 L 439.234,267.416 L 439.068,266.987 L 438.874,266.558 L 438.639,266.157 L 438.404,265.755 L 438.169,265.354 L 437.878,264.981 L 437.588,264.635 L 437.283,264.289 L 436.965,263.957 L 436.619,263.639 L 436.259,263.362 L 435.872,263.085 L 435.499,262.823 L 435.097,262.587 L 434.696,262.366 L 434.267,262.172 L 433.838,262.006 L 433.41,261.854 L 432.967,261.744 L 432.51,261.619 L 432.054,261.55 L 431.611,261.481 L 431.127,261.453 L 430.67,261.439 L 430.67,261.439 L 430.228,261.453 L 429.744,261.481 L 429.287,261.55 L 428.844,261.619 L 428.388,261.744 L 427.945,261.854 L 427.502,262.006 L 427.074,262.172 L 426.659,262.366 L 426.257,262.587 L 425.842,262.823 L 425.469,263.085 L 425.081,263.362 L 424.722,263.639 L 424.376,263.957 L 424.058,264.289 L 423.753,264.635 L 423.463,264.981 L 423.186,265.354 L 422.951,265.755 L 422.688,266.157 L 422.481,266.558 L 422.301,266.987 L 422.121,267.416 L 421.969,267.844 L 421.844,268.287 L 421.747,268.744 L 421.651,269.214 L 421.609,269.671 L 421.581,270.141 L 421.568,270.597 L 421.568,270.597 L 421.581,271.054 L 421.609,271.524 L 421.651,271.981 L 421.747,272.437 L 421.844,272.894 L 421.969,273.337 L 422.121,273.779 L 422.301,274.208 L 422.481,274.637 L 422.688,275.038 L 422.951,275.439 L 423.186,275.841 L 423.463,276.228 L 423.753,276.574 L 424.058,276.92 L 424.376,277.238 L 424.722,277.542 L 425.081,277.833 L 425.469,278.123 L 425.842,278.386 L 426.257,278.607 L 426.659,278.829 L 427.074,279.036 L 427.502,279.188 L 427.945,279.341 L 428.388,279.465 L 428.844,279.562 L 429.287,279.645 L 429.744,279.728 L 430.228,279.742 L 430.67,279.77 L 430.67,279.77 L 431.127,279.742 L 431.611,279.728 L 432.054,279.645 L 432.51,279.562 L 432.967,279.465 L 433.41,279.341 L 433.838,279.188 L 434.267,279.036 L 434.696,278.829 L 435.097,278.607 L 435.499,278.386 L 435.872,278.123 L 436.259,277.833 L 436.619,277.542 L 436.965,277.238 L 437.283,276.92 L 437.588,276.574 L 437.878,276.228 L 438.169,275.841 L 438.404,275.439 L 438.639,275.038 L 438.874,274.637 L 439.068,274.208 L 439.234,273.779 L 439.372,273.337 L 439.483,272.894 L 439.594,272.437 L 439.677,271.981 L 439.76,271.524 L 439.773,271.054 L 439.787,270.597z"/>
      <path style="fill: #e4405d" d="M 439.234 270.058 L 439.22,269.615 L 439.192,269.131 L 439.109,268.674 L 439.04,268.232 L 438.916,267.761 L 438.791,267.319 L 438.667,266.89 L 438.501,266.447 L 438.293,266.018 L 438.072,265.631 L 437.85,265.216 L 437.588,264.829 L 437.339,264.441 L 437.02,264.095 L 436.702,263.75 L 436.384,263.431 L 436.038,263.099 L 435.678,262.823 L 435.305,262.532 L 434.931,262.283 L 434.53,262.048 L 434.115,261.827 L 433.714,261.633 L 433.257,261.481 L 432.856,261.329 L 432.386,261.19 L 431.957,261.093 L 431.487,261.01 L 431.03,260.941 L 430.574,260.914 L 430.103,260.9 L 430.103,260.9 L 429.647,260.914 L 429.19,260.941 L 428.72,261.01 L 428.263,261.093 L 427.834,261.19 L 427.364,261.329 L 426.949,261.481 L 426.506,261.633 L 426.105,261.827 L 425.69,262.048 L 425.275,262.283 L 424.902,262.532 L 424.528,262.823 L 424.168,263.099 L 423.823,263.431 L 423.504,263.75 L 423.186,264.095 L 422.882,264.441 L 422.633,264.829 L 422.37,265.216 L 422.135,265.631 L 421.927,266.018 L 421.734,266.447 L 421.568,266.89 L 421.415,267.319 L 421.277,267.761 L 421.166,268.232 L 421.097,268.674 L 421.042,269.131 L 421,269.615 L 420.986,270.058 L 420.986,270.058 L 421,270.514 L 421.042,270.999 L 421.097,271.441 L 421.166,271.898 L 421.277,272.354 L 421.415,272.811 L 421.568,273.24 L 421.734,273.669 L 421.927,274.111 L 422.135,274.513 L 422.37,274.9 L 422.633,275.287 L 422.882,275.675 L 423.186,276.02 L 423.504,276.366 L 423.823,276.698 L 424.168,277.017 L 424.528,277.307 L 424.902,277.584 L 425.275,277.833 L 425.69,278.082 L 426.105,278.303 L 426.506,278.483 L 426.949,278.649 L 427.364,278.801 L 427.834,278.926 L 428.263,279.036 L 428.72,279.119 L 429.19,279.175 L 429.647,279.202 L 430.103,279.216 L 430.103,279.216 L 430.574,279.202 L 431.03,279.175 L 431.487,279.119 L 431.957,279.036 L 432.386,278.926 L 432.856,278.801 L 433.257,278.649 L 433.714,278.483 L 434.115,278.303 L 434.53,278.082 L 434.931,277.833 L 435.305,277.584 L 435.678,277.307 L 436.038,277.017 L 436.384,276.698 L 436.702,276.366 L 437.02,276.02 L 437.339,275.675 L 437.588,275.287 L 437.85,274.9 L 438.072,274.513 L 438.293,274.111 L 438.501,273.669 L 438.667,273.24 L 438.791,272.811 L 438.916,272.354 L 439.04,271.898 L 439.109,271.441 L 439.192,270.999 L 439.22,270.514 L 439.234,270.058z"/>
    </g>
    <text style="fill: #000000;text-anchor:start;font-size:12.8;font-family:sanserif;font-style:normal;font-weight:normal" x="380" y="352">
      <tspan x="380" y="352">LED server board</tspan>
    </text>
  </g>
  <g>
    <line style="fill: none; fill-opacity:0; stroke-width: 2; stroke-dasharray: 20 4 4 4 4 4; stroke: #000000" x1="647.264" y1="280.948" x2="478.339" y2="280.052"/>
    <polygon style="fill: #000000" points="654.764,280.988 644.738,285.935 647.264,280.948 644.791,275.935 "/>
    <polygon style="fill: none; fill-opacity:0; stroke-width: 2; stroke: #000000" points="654.764,280.988 644.738,285.935 647.264,280.948 644.791,275.935 "/>
    <polygon style="fill: #000000" points="470.839,280.012 480.866,275.065 478.339,280.052 480.812,285.065 "/>
    <polygon style="fill: none; fill-opacity:0; stroke-width: 2; stroke: #000000" points="470.839,280.012 480.866,275.065 478.339,280.052 480.812,285.065 "/>
  </g>
  <text style="fill: #000000;text-anchor:start;font-size:12.8;font-family:sanserif;font-style:normal;font-weight:normal" x="538" y="269">
    <tspan x="538" y="269">Serial</tspan>
  </text>
  <text style="fill: #000000;text-anchor:start;font-size:12.8;font-family:sanserif;font-style:normal;font-weight:normal" x="617" y="389">
    <tspan x="617" y="389"></tspan>
  </text>
  <g>
    <path style="fill: #626248" d="M 839.85 181.715 L 839.824,181.281 L 839.745,180.861 L 839.614,180.441 L 839.43,180.021 L 839.207,179.614 L 838.931,179.207 L 838.603,178.8 L 838.222,178.406 L 837.802,177.999 L 837.342,177.631 L 836.843,177.263 L 836.266,176.909 L 835.675,176.568 L 835.044,176.239 L 834.362,175.924 L 833.653,175.609 L 832.904,175.333 L 832.116,175.044 L 831.302,174.795 L 830.449,174.585 L 829.582,174.362 L 828.689,174.165 L 827.77,173.981 L 826.838,173.81 L 825.88,173.692 L 824.908,173.561 L 823.923,173.482 L 822.938,173.403 L 821.927,173.351 L 820.929,173.311 L 819.918,173.311 L 819.918,173.311 L 818.907,173.311 L 817.896,173.351 L 816.899,173.403 L 815.901,173.482 L 814.916,173.561 L 813.944,173.692 L 812.986,173.81 L 812.053,173.981 L 811.134,174.165 L 810.255,174.362 L 809.375,174.585 L 808.535,174.795 L 807.721,175.044 L 806.933,175.333 L 806.184,175.609 L 805.475,175.924 L 804.793,176.239 L 804.149,176.568 L 803.558,176.909 L 803.007,177.263 L 802.495,177.631 L 802.022,177.999 L 801.602,178.406 L 801.234,178.8 L 800.906,179.207 L 800.617,179.614 L 800.407,180.021 L 800.21,180.441 L 800.092,180.861 L 800,181.281 L 800,181.715 L 800,181.715 L 800,182.135 L 800.092,182.568 L 800.21,182.988 L 800.407,183.408 L 800.617,183.815 L 800.906,184.222 L 801.234,184.629 L 801.602,185.023 L 802.022,185.417 L 802.495,185.785 L 803.007,186.153 L 803.558,186.52 L 804.149,186.862 L 804.793,187.19 L 805.475,187.505 L 806.184,187.807 L 806.933,188.083 L 807.721,188.372 L 808.535,188.621 L 809.375,188.831 L 810.255,189.067 L 811.134,189.264 L 812.053,189.435 L 812.986,189.606 L 813.944,189.724 L 814.916,189.855 L 815.901,189.947 L 816.899,190.026 L 817.896,190.065 L 818.907,190.105 L 819.918,190.118 L 819.918,190.118 L 820.929,190.105 L 821.927,190.065 L 822.938,190.026 L 823.923,189.947 L 824.908,189.855 L 825.88,189.724 L 826.838,189.606 L 827.77,189.435 L 828.689,189.264 L 829.582,189.067 L 830.449,188.831 L 831.302,188.621 L 832.116,188.372 L 832.904,188.083 L 833.653,187.807 L 834.362,187.505 L 835.044,187.19 L 835.675,186.862 L 836.266,186.52 L 836.843,186.153 L 837.342,185.785 L 837.802,185.417 L 838.222,185.023 L 838.603,184.629 L 838.931,184.222 L 839.207,183.815 L 839.43,183.408 L 839.614,182.988 L 839.745,182.568 L 839.824,182.135 L 839.85,181.715z"/>
    <path style="fill: none; fill-opacity:0; stroke-width: 0.56; stroke: #494936" d="M 839.496 181.347 L 839.469,180.927 L 839.391,180.493 L 839.285,180.073 L 839.102,179.64 L 838.865,179.22 L 838.59,178.813 L 838.261,178.406 L 837.894,178.025 L 837.5,177.644 L 837.014,177.25 L 836.515,176.896 L 835.964,176.528 L 835.373,176.187 L 834.729,175.859 L 834.073,175.53 L 833.364,175.255 L 832.615,174.953 L 831.841,174.69 L 831.027,174.44 L 830.199,174.204 L 829.32,173.981 L 828.44,173.784 L 827.534,173.613 L 826.602,173.456 L 825.656,173.311 L 824.698,173.193 L 823.713,173.101 L 822.728,173.036 L 821.744,172.983 L 820.759,172.944 L 819.748,172.917 L 819.748,172.917 L 818.75,172.944 L 817.739,172.983 L 816.754,173.036 L 815.756,173.101 L 814.798,173.193 L 813.826,173.311 L 812.881,173.456 L 811.948,173.613 L 811.042,173.784 L 810.176,173.981 L 809.296,174.204 L 808.469,174.44 L 807.642,174.69 L 806.867,174.953 L 806.132,175.255 L 805.423,175.53 L 804.753,175.859 L 804.11,176.187 L 803.532,176.528 L 802.967,176.896 L 802.468,177.25 L 802.009,177.644 L 801.589,178.025 L 801.221,178.406 L 800.893,178.813 L 800.617,179.22 L 800.407,179.64 L 800.21,180.073 L 800.079,180.493 L 800.013,180.927 L 800,181.347 L 800,181.347 L 800.013,181.767 L 800.079,182.214 L 800.21,182.634 L 800.407,183.054 L 800.617,183.474 L 800.893,183.868 L 801.221,184.275 L 801.589,184.669 L 802.009,185.05 L 802.468,185.444 L 802.967,185.785 L 803.532,186.166 L 804.11,186.507 L 804.753,186.835 L 805.423,187.164 L 806.132,187.439 L 806.867,187.741 L 807.642,188.004 L 808.469,188.253 L 809.296,188.503 L 810.176,188.713 L 811.042,188.91 L 811.948,189.081 L 812.881,189.238 L 813.826,189.383 L 814.798,189.514 L 815.756,189.606 L 816.754,189.658 L 817.739,189.724 L 818.75,189.737 L 819.748,189.763 L 819.748,189.763 L 820.759,189.737 L 821.744,189.724 L 822.728,189.658 L 823.713,189.606 L 824.698,189.514 L 825.656,189.383 L 826.602,189.238 L 827.534,189.081 L 828.44,188.91 L 829.32,188.713 L 830.199,188.503 L 831.027,188.253 L 831.841,188.004 L 832.615,187.741 L 833.364,187.439 L 834.073,187.164 L 834.729,186.835 L 835.373,186.507 L 835.964,186.166 L 836.515,185.785 L 837.014,185.444 L 837.5,185.05 L 837.894,184.669 L 838.261,184.275 L 838.59,183.868 L 838.865,183.474 L 839.102,183.054 L 839.285,182.634 L 839.391,182.214 L 839.469,181.767 L 839.496,181.347"/>
    <path style="fill: none; fill-opacity:0; stroke-width: 0.8; stroke: #494936" d="M 801.444 182.227 L 801.51,182.568 L 801.615,182.896 L 801.773,183.251 L 801.996,183.579 L 802.272,183.907 L 802.574,184.236 L 802.967,184.564 L 803.401,184.892 L 803.887,185.194 L 804.399,185.496 L 805.003,185.785 L 805.607,186.048 L 806.289,186.336 L 806.998,186.586 L 807.76,186.835 L 808.548,187.059 L 809.388,187.269 L 810.255,187.492 L 811.134,187.676 L 812.053,187.846 L 813.025,188.004"/>
    <path style="fill: none; fill-opacity:0; stroke-width: 0.8; stroke: #a5a585" d="M 813.472 175.031 L 812.474,175.202 L 811.528,175.373 L 810.596,175.57 L 809.703,175.78 L 808.837,176.016 L 808.023,176.266 L 807.235,176.515 L 806.486,176.791 L 805.804,177.08 L 805.16,177.368 L 804.556,177.67 L 803.992,177.999 L 803.493,178.327 L 803.033,178.655 L 802.639,179.023 L 802.311,179.364 L 802.022,179.719 L 801.799,180.1 L 801.615,180.454"/>
    <path style="fill: #a5a585" d="M 844.603 181.518 L 844.616,140 L 843.119,140.066 L 841.636,140.223 L 840.152,140.473 L 838.668,140.814 L 837.211,141.287 L 835.78,141.851 L 834.362,142.508 L 832.957,143.269 L 831.604,144.11 L 830.278,145.068 L 828.965,146.079 L 827.718,147.222 L 826.51,148.43 L 825.354,149.716 L 824.212,151.069 L 823.148,152.539 L 822.124,154.036 L 821.166,155.638 L 820.26,157.292 L 819.42,158.999 L 818.645,160.759 L 817.923,162.571 L 817.266,164.448 L 816.702,166.339 L 816.19,168.296 L 815.756,170.265 L 815.375,172.287 L 815.073,174.296 L 814.85,176.357 L 814.706,178.406 L 814.627,180.467 L 814.627,182.555 L 814.706,184.616 L 814.85,186.678 L 815.073,188.726 L 815.375,190.748 L 815.756,192.77 L 816.19,194.74 L 816.702,196.683 L 817.266,198.587 L 817.923,200.451 L 818.645,202.276 L 819.42,204.036 L 820.26,205.743 L 821.166,207.397 L 822.124,208.986 L 823.148,210.496 L 824.212,211.953 L 825.354,213.319 L 826.51,214.606 L 827.718,215.814 L 828.965,216.943 L 830.278,217.967 L 831.604,218.912 L 832.957,219.766 L 834.362,220.527 L 835.78,221.184 L 837.211,221.748 L 838.668,222.208 L 840.152,222.563 L 841.636,222.812 L 843.119,222.97 L 844.616,223.022 L 844.603,181.518z"/>
    <path style="fill: none; fill-opacity:0; stroke-width: 0.56; stroke: #494936" d="M 844.616 140 L 843.119,140.066 L 841.636,140.223 L 840.139,140.46 L 838.668,140.814 L 837.198,141.3 L 835.78,141.851 L 834.362,142.508 L 832.944,143.256 L 831.591,144.11 L 830.278,145.055 L 828.965,146.079 L 827.731,147.208 L 826.497,148.43 L 825.328,149.716 L 824.212,151.069 L 823.148,152.539 L 822.124,154.023 L 821.153,155.638 L 820.247,157.279 L 819.42,158.986 L 818.632,160.759 L 817.923,162.558 L 817.266,164.435 L 816.688,166.339 L 816.176,168.296 L 815.73,170.278 L 815.349,172.287 L 815.073,174.309 L 814.85,176.357 L 814.706,178.406 L 814.627,180.467 L 814.627,182.555 L 814.706,184.616 L 814.85,186.678 L 815.073,188.713 L 815.349,190.748 L 815.73,192.757 L 816.176,194.74 L 816.688,196.683 L 817.266,198.6 L 817.923,200.464 L 818.632,202.276 L 819.42,204.049 L 820.247,205.756 L 821.153,207.397 L 822.124,208.999 L 823.148,210.496 L 824.212,211.953 L 825.328,213.319 L 826.497,214.606 L 827.731,215.827 L 828.965,216.943 L 830.278,217.98 L 831.591,218.912 L 832.944,219.779 L 834.362,220.527 L 835.78,221.184 L 837.198,221.735 L 838.668,222.208 L 840.139,222.563 L 841.636,222.812 L 843.119,222.97 L 844.616,223.022"/>
    <path style="fill: #c9c9b6" d="M 855.935 181.518 L 855.935,179.417 L 855.882,177.316 L 855.803,175.215 L 855.698,173.154 L 855.58,171.105 L 855.409,169.083 L 855.226,167.074 L 855.015,165.144 L 854.766,163.214 L 854.49,161.363 L 854.201,159.564 L 853.873,157.791 L 853.532,156.084 L 853.177,154.469 L 852.77,152.894 L 852.363,151.41 L 851.917,150.005 L 851.47,148.679 L 850.998,147.445 L 850.512,146.289 L 850.013,145.213 L 849.501,144.241 L 848.962,143.361 L 848.424,142.587 L 847.859,141.891 L 847.308,141.313 L 846.743,140.853 L 846.166,140.473 L 845.588,140.223 L 845.01,140.053 L 844.419,140 L 844.419,140 L 843.829,140.053 L 843.251,140.223 L 842.673,140.473 L 842.095,140.853 L 841.531,141.313 L 840.966,141.891 L 840.415,142.587 L 839.876,143.361 L 839.338,144.241 L 838.826,145.213 L 838.327,146.289 L 837.841,147.445 L 837.368,148.679 L 836.922,150.005 L 836.476,151.41 L 836.069,152.894 L 835.675,154.469 L 835.307,156.084 L 834.966,157.791 L 834.637,159.564 L 834.349,161.363 L 834.073,163.214 L 833.823,165.144 L 833.613,167.074 L 833.429,169.083 L 833.259,171.105 L 833.154,173.154 L 833.036,175.215 L 832.957,177.316 L 832.904,179.417 L 832.904,181.518 L 832.904,181.518 L 832.904,183.618 L 832.957,185.706 L 833.036,187.807 L 833.154,189.868 L 833.259,191.93 L 833.429,193.952 L 833.613,195.948 L 833.823,197.891 L 834.073,199.808 L 834.349,201.672 L 834.637,203.471 L 834.966,205.244 L 835.307,206.924 L 835.675,208.566 L 836.069,210.128 L 836.476,211.612 L 836.922,213.017 L 837.368,214.356 L 837.841,215.59 L 838.327,216.746 L 838.826,217.823 L 839.338,218.794 L 839.876,219.674 L 840.415,220.449 L 840.966,221.131 L 841.531,221.709 L 842.095,222.182 L 842.673,222.563 L 843.251,222.812 L 843.829,222.983 L 844.419,223.035 L 844.419,223.035 L 845.01,222.983 L 845.588,222.812 L 846.166,222.563 L 846.743,222.182 L 847.308,221.709 L 847.859,221.131 L 848.424,220.449 L 848.962,219.674 L 849.501,218.794 L 850.013,217.823 L 850.512,216.746 L 850.998,215.59 L 851.47,214.356 L 851.917,213.017 L 852.363,211.612 L 852.77,210.128 L 853.177,208.566 L 853.532,206.924 L 853.873,205.244 L 854.201,203.471 L 854.49,201.672 L 854.766,199.808 L 855.015,197.891 L 855.226,195.948 L 855.409,193.952 L 855.58,191.93 L 855.698,189.868 L 855.803,187.807 L 855.882,185.706 L 855.935,183.618 L 855.935,181.518z"/>
    <path style="fill: none; fill-opacity:0; stroke-width: 0.56; stroke: #494936" d="M 855.58 181.347 L 855.567,179.259 L 855.527,177.172 L 855.449,175.084 L 855.344,173.036 L 855.226,171 L 855.068,168.965 L 854.871,166.996 L 854.661,165.039 L 854.411,163.135 L 854.162,161.297 L 853.86,159.459 L 853.545,157.726 L 853.203,156.058 L 852.849,154.417 L 852.455,152.868 L 852.048,151.397 L 851.628,149.979 L 851.181,148.666 L 850.709,147.419 L 850.249,146.276 L 849.75,145.213 L 849.238,144.241 L 848.713,143.348 L 848.175,142.587 L 847.623,141.891 L 847.098,141.313 L 846.533,140.853 L 845.956,140.473 L 845.391,140.223 L 844.826,140.066 L 844.236,140 L 844.236,140 L 843.671,140.066 L 843.093,140.223 L 842.529,140.473 L 841.964,140.853 L 841.386,141.313 L 840.861,141.891 L 840.31,142.587 L 839.771,143.348 L 839.259,144.241 L 838.734,145.213 L 838.235,146.276 L 837.762,147.419 L 837.303,148.666 L 836.856,149.979 L 836.436,151.397 L 836.029,152.868 L 835.648,154.417 L 835.281,156.058 L 834.939,157.726 L 834.611,159.459 L 834.322,161.297 L 834.073,163.135 L 833.823,165.039 L 833.613,166.996 L 833.429,168.965 L 833.259,171 L 833.154,173.036 L 833.022,175.084 L 832.944,177.172 L 832.904,179.259 L 832.904,181.347 L 832.904,181.347 L 832.904,183.421 L 832.944,185.522 L 833.022,187.623 L 833.154,189.658 L 833.259,191.693 L 833.429,193.729 L 833.613,195.698 L 833.823,197.655 L 834.073,199.558 L 834.322,201.41 L 834.611,203.222 L 834.939,204.968 L 835.281,206.649 L 835.648,208.29 L 836.029,209.839 L 836.436,211.323 L 836.856,212.715 L 837.303,214.041 L 837.762,215.288 L 838.235,216.431 L 838.734,217.494 L 839.259,218.466 L 839.771,219.346 L 840.31,220.12 L 840.861,220.803 L 841.386,221.381 L 841.964,221.853 L 842.529,222.221 L 843.093,222.484 L 843.671,222.641 L 844.236,222.694 L 844.236,222.694 L 844.826,222.641 L 845.391,222.484 L 845.956,222.221 L 846.533,221.853 L 847.098,221.381 L 847.623,220.803 L 848.175,220.12 L 848.713,219.346 L 849.238,218.466 L 849.75,217.494 L 850.249,216.431 L 850.709,215.288 L 851.181,214.041 L 851.628,212.715 L 852.048,211.323 L 852.455,209.839 L 852.849,208.29 L 853.203,206.649 L 853.545,204.968 L 853.86,203.222 L 854.162,201.41 L 854.411,199.558 L 854.661,197.655 L 854.871,195.698 L 855.068,193.729 L 855.226,191.693 L 855.344,189.658 L 855.449,187.623 L 855.527,185.522 L 855.567,183.421 L 855.58,181.347"/>
    <path style="fill: #626248" d="M 842.03 181.715 L 842.017,180.953 L 841.99,180.205 L 841.964,179.443 L 841.912,178.695 L 841.846,177.959 L 841.767,177.224 L 841.688,176.502 L 841.57,175.806 L 841.452,175.11 L 841.321,174.44 L 841.176,173.784 L 841.032,173.154 L 840.848,172.537 L 840.664,171.933 L 840.467,171.381 L 840.257,170.856 L 840.047,170.344 L 839.837,169.858 L 839.601,169.412 L 839.364,168.978 L 839.115,168.611 L 838.865,168.256 L 838.603,167.928 L 838.327,167.652 L 838.051,167.403 L 837.789,167.193 L 837.5,167.035 L 837.224,166.891 L 836.935,166.799 L 836.646,166.746 L 836.371,166.72 L 836.371,166.72 L 836.082,166.746 L 835.793,166.799 L 835.504,166.891 L 835.228,167.035 L 834.939,167.193 L 834.677,167.403 L 834.401,167.652 L 834.138,167.928 L 833.863,168.256 L 833.613,168.611 L 833.364,168.978 L 833.127,169.412 L 832.904,169.858 L 832.681,170.344 L 832.471,170.856 L 832.261,171.381 L 832.09,171.933 L 831.88,172.537 L 831.722,173.154 L 831.565,173.784 L 831.434,174.44 L 831.276,175.11 L 831.158,175.806 L 831.066,176.502 L 830.961,177.224 L 830.882,177.959 L 830.817,178.695 L 830.777,179.443 L 830.738,180.205 L 830.711,180.953 L 830.698,181.715 L 830.698,181.715 L 830.711,182.476 L 830.738,183.225 L 830.777,183.986 L 830.817,184.721 L 830.882,185.457 L 830.961,186.205 L 831.066,186.927 L 831.158,187.623 L 831.276,188.319 L 831.434,188.989 L 831.565,189.645 L 831.722,190.275 L 831.88,190.879 L 832.09,191.483 L 832.261,192.035 L 832.471,192.573 L 832.681,193.085 L 832.904,193.571 L 833.127,194.004 L 833.364,194.438 L 833.613,194.818 L 833.863,195.173 L 834.138,195.501 L 834.401,195.777 L 834.677,196.026 L 834.939,196.237 L 835.228,196.394 L 835.504,196.539 L 835.793,196.63 L 836.082,196.683 L 836.371,196.709 L 836.371,196.709 L 836.646,196.683 L 836.935,196.63 L 837.224,196.539 L 837.5,196.394 L 837.789,196.237 L 838.051,196.026 L 838.327,195.777 L 838.603,195.501 L 838.865,195.173 L 839.115,194.818 L 839.364,194.438 L 839.601,194.004 L 839.837,193.571 L 840.047,193.085 L 840.257,192.573 L 840.467,192.035 L 840.664,191.483 L 840.848,190.879 L 841.032,190.275 L 841.176,189.645 L 841.321,188.989 L 841.452,188.319 L 841.57,187.623 L 841.688,186.927 L 841.767,186.205 L 841.846,185.457 L 841.912,184.721 L 841.964,183.986 L 841.99,183.225 L 842.017,182.476 L 842.03,181.715z"/>
    <path style="fill: none; fill-opacity:0; stroke-width: 0.56; stroke: #494936" d="M 841.688 181.347 L 841.688,180.598 L 841.649,179.811 L 841.61,179.062 L 841.57,178.327 L 841.504,177.579 L 841.439,176.843 L 841.334,176.147 L 841.229,175.438 L 841.111,174.742 L 840.979,174.06 L 840.861,173.403 L 840.717,172.786 L 840.546,172.169 L 840.375,171.578 L 840.178,171 L 839.981,170.488 L 839.771,169.95 L 839.548,169.49 L 839.338,169.031 L 839.102,168.624 L 838.865,168.23 L 838.616,167.888 L 838.366,167.573 L 838.104,167.284 L 837.841,167.035 L 837.579,166.825 L 837.303,166.654 L 837.027,166.536 L 836.738,166.418 L 836.476,166.352 L 836.187,166.339 L 836.187,166.339 L 835.924,166.352 L 835.648,166.418 L 835.373,166.536 L 835.097,166.654 L 834.808,166.825 L 834.545,167.035 L 834.283,167.284 L 834.02,167.573 L 833.771,167.888 L 833.521,168.23 L 833.285,168.624 L 833.049,169.031 L 832.839,169.49 L 832.615,169.95 L 832.418,170.488 L 832.221,171 L 832.024,171.578 L 831.854,172.169 L 831.683,172.786 L 831.526,173.403 L 831.394,174.06 L 831.276,174.742 L 831.158,175.438 L 831.066,176.147 L 830.961,176.843 L 830.895,177.579 L 830.817,178.327 L 830.777,179.062 L 830.738,179.811 L 830.725,180.598 L 830.698,181.347 L 830.698,181.347 L 830.725,182.095 L 830.738,182.883 L 830.777,183.618 L 830.817,184.367 L 830.895,185.102 L 830.961,185.851 L 831.066,186.56 L 831.158,187.269 L 831.276,187.965 L 831.394,188.634 L 831.526,189.291 L 831.683,189.921 L 831.854,190.538 L 832.024,191.129 L 832.221,191.693 L 832.418,192.219 L 832.615,192.731 L 832.839,193.217 L 833.049,193.663 L 833.285,194.083 L 833.521,194.477 L 833.771,194.818 L 834.02,195.134 L 834.283,195.396 L 834.545,195.646 L 834.808,195.869 L 835.097,196.04 L 835.373,196.171 L 835.648,196.276 L 835.924,196.342 L 836.187,196.355 L 836.187,196.355 L 836.476,196.342 L 836.738,196.276 L 837.027,196.171 L 837.303,196.04 L 837.579,195.869 L 837.841,195.646 L 838.104,195.396 L 838.366,195.134 L 838.616,194.818 L 838.865,194.477 L 839.102,194.083 L 839.338,193.663 L 839.548,193.217 L 839.771,192.731 L 839.981,192.219 L 840.178,191.693 L 840.375,191.129 L 840.546,190.538 L 840.717,189.921 L 840.861,189.291 L 840.979,188.634 L 841.111,187.965 L 841.229,187.269 L 841.334,186.56 L 841.439,185.851 L 841.504,185.102 L 841.57,184.367 L 841.61,183.618 L 841.649,182.883 L 841.688,182.095 L 841.688,181.347"/>
    <path style="fill: #7a7a5a" d="M 844.971 194.897 L 844.236,194.162 L 844.236,168.926 L 844.971,168.177 L 852.665,172.576 L 853.4,173.679 L 853.4,189.396 L 852.665,190.866 L 844.971,194.897z"/>
    <path style="fill: #7a7a5a" d="M 839.141 218.308 L 837.67,215.38 L 836.568,212.085 L 836.935,212.085 L 837.303,212.085 L 838.025,212.085 L 838.406,211.717 L 839.482,210.627 L 840.598,208.802 L 841.688,206.596 L 842.791,204.049 L 844.971,198.18 L 845.719,198.18 L 851.208,205.506 L 851.208,207.332 L 850.472,210.26 L 848.989,213.555 L 847.925,216.483 L 846.428,218.308 L 844.971,220.488 L 843.146,220.869 L 840.598,220.488 L 839.141,218.308z"/>
    <path style="fill: #dbdbce" d="M 829.989 173.679 L 838.773,173.679 L 838.773,189.396 L 829.989,189.396 L 829.989,173.679z"/>
    <path style="fill: none; fill-opacity:0; stroke-width: 0.56; stroke: #494936" d="M 829.989 173.679 L 838.773,173.679 L 838.773,189.396 L 829.989,189.396 L 829.989,173.679"/>
    <path style="fill: none; fill-opacity:0; stroke-width: 1.58; stroke: #ecece7" d="M 841.465 145.738 L 839.968,146 L 838.485,146.368 L 837.014,146.801 L 835.557,147.34 L 834.138,147.957 L 832.747,148.692 L 831.381,149.493 L 830.068,150.347 L 828.781,151.318 L 827.573,152.369 L 826.365,153.485 L 825.236,154.666 L 824.16,155.914 L 823.135,157.227 L 822.164,158.619 L 821.258,160.063 L 820.431,161.56"/>
    <path style="fill: #7a7a5a" d="M 839.141 144.753 L 837.67,147.694 L 836.568,150.99 L 836.935,150.99 L 837.303,150.99 L 837.67,150.99 L 838.406,151.358 L 839.482,152.447 L 840.598,153.918 L 841.688,156.478 L 842.791,158.671 L 844.616,164.514 L 845.719,164.895 L 851.208,157.201 L 851.208,155.743 L 850.472,152.802 L 848.989,149.165 L 847.925,146.604 L 846.428,144.753 L 844.971,142.587 L 843.146,141.851 L 840.598,142.587 L 839.141,144.753z"/>
    <path style="fill: #a5a585" d="M 833.64 168.926 L 833.272,172.576 L 833.272,175.504 L 833.272,179.876 L 833.272,185.01 L 833.272,187.216 L 833.272,189.396 L 833.272,191.247 L 833.64,194.162 L 833.64,197.077 L 829.622,191.588 L 826.681,186.1 L 828.519,175.859 L 830.698,171.105 L 834.02,165.604 L 833.64,168.926z"/>
    <path style="fill: none; fill-opacity:0; stroke-width: 1.58; stroke: #7a7a5a" d="M 816.544 190.696 L 816.859,192.442 L 817.24,194.201 L 817.726,195.908 L 818.251,197.602 L 818.868,199.243 L 819.564,200.845 L 820.352,202.408 L 821.166,203.918 L 822.072,205.375 L 823.057,206.767 L 824.054,208.106 L 825.131,209.38 L 826.273,210.588 L 827.495,211.704 L 828.703,212.754 L 829.989,213.739 L 831.315,214.619 L 832.694,215.446 L 834.099,216.155 L 835.53,216.785 L 836.988,217.324 L 838.485,217.783 L 839.968,218.151 L 841.465,218.413"/>
    <path style="fill: none; fill-opacity:0; stroke-width: 0.56; stroke: #494936" d="M 844.59 140 L 844.025,140.066 L 843.435,140.223 L 842.857,140.46 L 842.292,140.814 L 841.715,141.3 L 841.15,141.851 L 840.625,142.508 L 840.06,143.256 L 839.522,144.11 L 839.023,145.055 L 838.511,146.079 L 838.012,147.208 L 837.539,148.43 L 837.093,149.716 L 836.646,151.069 L 836.213,152.539 L 835.859,154.023 L 835.465,155.638 L 835.097,157.279 L 834.769,158.986 L 834.48,160.759 L 834.191,162.558 L 833.941,164.435 L 833.731,166.339 L 833.508,168.296 L 833.351,170.278 L 833.193,172.287 L 833.075,174.309 L 832.996,176.357 L 832.93,178.406 L 832.904,180.467 L 832.904,182.555 L 832.93,184.616 L 832.996,186.678 L 833.075,188.713 L 833.193,190.748 L 833.351,192.757 L 833.508,194.74 L 833.731,196.683 L 833.941,198.6 L 834.191,200.464 L 834.48,202.276 L 834.769,204.049 L 835.097,205.756 L 835.465,207.397 L 835.859,208.999 L 836.213,210.496 L 836.646,211.953 L 837.093,213.319 L 837.539,214.606 L 838.012,215.827 L 838.511,216.943 L 839.023,217.98 L 839.522,218.912 L 840.06,219.779 L 840.625,220.527 L 841.15,221.184 L 841.715,221.735 L 842.292,222.208 L 842.857,222.563 L 843.435,222.812 L 844.025,222.97 L 844.59,223.022"/>
  </g>
  <image x="820" y="40" width="65.3333" height="49" xlink:href="file:///home/hhv/Downloads/pushbutton.jpeg"/>
  <g>
    <g>
      <line style="fill: none; fill-opacity:0; stroke-width: 2; stroke-dasharray: 4; stroke: #000000" x1="438.154" y1="232" x2="489.272" y2="92.1428"/>
      <polygon style="fill: #000000" points="491.846,85.0986 493.11,96.2073 489.272,92.1428 483.717,92.7744 "/>
      <polygon style="fill: none; fill-opacity:0; stroke-width: 2; stroke: #000000" points="491.846,85.0986 493.11,96.2073 489.272,92.1428 483.717,92.7744 "/>
    </g>
    <text style="fill: #000000;text-anchor:start;font-size:12.8;font-family:sanserif;font-style:normal;font-weight:normal" x="424" y="160">
      <tspan x="424" y="160">DMX</tspan>
    </text>
  </g>
  <image x="100" y="40" width="65.3333" height="49" xlink:href="file:///home/hhv/Downloads/pushbutton.jpeg"/>
  <g>
    <line style="fill: none; fill-opacity:0; stroke-width: 2; stroke-dasharray: 20; stroke: #000000" x1="752.528" y1="257.996" x2="795.013" y2="186.767"/>
    <polygon style="fill: #000000" points="798.855,180.326 798.026,191.476 795.013,186.767 789.438,186.353 "/>
    <polygon style="fill: none; fill-opacity:0; stroke-width: 2; stroke: #000000" points="798.855,180.326 798.026,191.476 795.013,186.767 789.438,186.353 "/>
  </g>
  <g>
    <path style="fill: none; fill-opacity:0; stroke-width: 2; stroke: #000000" d="M 821.619,289.235 A 30.0021,30.0021 0 0 0 820,279"/>
    <polygon style="fill: #000000" points="820.037,282.236 825.203,292.151 820.162,289.735 815.205,292.318 "/>
    <polygon style="fill: none; fill-opacity:0; stroke-width: 2; stroke: #000000" points="820.037,282.236 825.203,292.151 820.162,289.735 815.205,292.318 "/>
  </g>
  <text style="fill: #000000;text-anchor:start;font-size:12.8;font-family:sanserif;font-style:normal;font-weight:normal" x="780" y="220">
    <tspan x="780" y="220"></tspan>
  </text>
</svg>
